<?xml version="1.0" encoding="utf-8"?>
<!-- Generator: Adobe Illustrator 17.0.0, SVG Export Plug-In . SVG Version: 6.00 Build 0)  -->
<!DOCTYPE svg PUBLIC "-//W3C//DTD SVG 1.1//EN" "http://www.w3.org/Graphics/SVG/1.1/DTD/svg11.dtd">
<svg version="1.1" id="Calque_1" xmlns="http://www.w3.org/2000/svg" xmlns:xlink="http://www.w3.org/1999/xlink" x="0px" y="0px"
	 width="800px" height="917px" viewBox="0 0 800 917" enable-background="new 0 0 800 917" xml:space="preserve">
<g id="background">
	<polygon opacity="0.7" fill="#606060" points="783.669,38.272 783.669,12.246 321.33,12.246 319.032,12.246 18.915,12.246 
		18.915,38.272 12.833,38.272 12.833,51.639 12.833,51.973 12.833,876.806 18.915,876.806 18.915,902.833 319.032,902.833 
		321.33,902.833 783.669,902.833 783.669,876.806 789.75,876.806 789.75,51.973 789.75,51.639 789.75,38.272 	"/>
	<g>
		<rect x="24.997" y="6.079" fill="#3F1717" width="13.611" height="6.079"/>
		<rect x="12.833" y="18.412" fill="#3F1717" width="6.082" height="13.605"/>
		<rect x="18.915" y="12.157" fill="#3F1717" width="6.082" height="6.255"/>
		<rect x="6.752" y="32.017" fill="#3F1717" width="6.082" height="6.255"/>
		<rect x="24.997" y="902.921" fill="#3F1717" width="13.611" height="6.079"/>
		<rect x="12.833" y="883.062" fill="#3F1717" width="6.082" height="13.605"/>
		<polygon fill="#3F1717" points="6.752,51.589 6.752,38.272 0.67,38.272 0.67,51.589 0.67,52.023 0.67,876.806 6.752,876.806 
			6.752,52.023 		"/>
		<rect x="18.915" y="896.666" fill="#3F1717" width="6.082" height="6.255"/>
		<rect x="6.752" y="876.806" fill="#3F1717" width="6.082" height="6.255"/>
		<polygon fill="#3F1717" points="321.33,6.079 763.976,6.079 763.976,0 321.33,0 319.032,0 38.608,0 38.608,6.079 319.032,6.079 		
			"/>
		<rect x="763.976" y="6.079" fill="#3F1717" width="13.611" height="6.079"/>
		<rect x="783.669" y="18.412" fill="#3F1717" width="6.082" height="13.605"/>
		<rect x="777.587" y="12.157" fill="#3F1717" width="6.082" height="6.255"/>
		<rect x="789.75" y="32.017" fill="#3F1717" width="6.082" height="6.255"/>
		<polygon fill="#3F1717" points="319.032,909 38.608,909 38.608,915.079 319.032,915.079 321.33,915.079 763.976,915.079 
			763.976,909 321.33,909 		"/>
		<rect x="763.976" y="902.921" fill="#3F1717" width="13.611" height="6.079"/>
		<rect x="783.669" y="883.062" fill="#3F1717" width="6.082" height="13.605"/>
		<polygon fill="#3F1717" points="795.832,38.272 795.832,51.589 795.832,52.023 795.832,876.806 801.914,876.806 801.914,52.023 
			801.914,51.589 801.914,38.272 		"/>
		<rect x="777.587" y="896.666" fill="#3F1717" width="6.082" height="6.255"/>
		<rect x="789.75" y="876.806" fill="#3F1717" width="6.082" height="6.255"/>
	</g>
	<g>
		<rect x="24.997" y="12.246" fill="#EF6612" width="13.611" height="6.167"/>
		<polygon fill="#EF6612" points="24.997,24.674 31.046,24.674 31.046,18.419 24.997,18.419 24.997,18.412 18.915,18.412 
			18.915,32.017 24.997,32.017 		"/>
		<rect x="12.833" y="32.017" fill="#EF6612" width="6.082" height="6.255"/>
		<rect x="24.997" y="896.666" fill="#EF6612" width="13.611" height="6.167"/>
		<polygon fill="#EF6612" points="31.046,896.66 31.046,890.405 24.997,890.405 24.997,883.062 18.915,883.062 18.915,896.666 
			24.997,896.666 24.997,896.66 		"/>
		<polygon fill="#EF6612" points="12.833,51.589 12.833,38.272 6.752,38.272 6.752,51.589 6.752,52.023 6.752,876.806 
			12.833,876.806 12.833,52.023 		"/>
		<rect x="12.833" y="876.806" fill="#EF6612" width="6.082" height="6.255"/>
		<polygon fill="#EF6612" points="321.33,12.157 763.976,12.157 763.976,6.079 321.33,6.079 319.032,6.079 38.608,6.079 
			38.608,12.157 319.032,12.157 		"/>
		<rect x="763.976" y="12.246" fill="#EF6612" width="13.611" height="6.167"/>
		<polygon fill="#EF6612" points="777.587,18.412 777.587,18.419 771.537,18.419 771.537,24.674 777.587,24.674 777.587,32.017 
			783.669,32.017 783.669,18.412 		"/>
		<rect x="783.669" y="32.017" fill="#EF6612" width="6.082" height="6.255"/>
		<polygon fill="#EF6612" points="319.032,902.921 38.608,902.921 38.608,909 319.032,909 321.33,909 763.976,909 763.976,902.921 
			321.33,902.921 		"/>
		<rect x="763.976" y="896.666" fill="#EF6612" width="13.611" height="6.167"/>
		<polygon fill="#EF6612" points="777.587,890.405 771.537,890.405 771.537,896.66 777.587,896.66 777.587,896.666 783.669,896.666 
			783.669,883.062 777.587,883.062 		"/>
		<polygon fill="#EF6612" points="789.75,38.272 789.75,51.589 789.75,52.023 789.75,876.806 795.832,876.806 795.832,52.023 
			795.832,51.589 795.832,38.272 		"/>
		<rect x="783.669" y="876.806" fill="#EF6612" width="6.082" height="6.255"/>
	</g>
</g>
<g id="titre">
	<text transform="matrix(1.0005 0 0 1 138.4824 120.6193)" fill="#EF6612" font-family="'Silkscreen'" font-size="86.3168">CHARACTER</text>
	<text transform="matrix(1.0005 0 0 1 134.3955 120.6193)" font-family="'Silkscreen'" font-size="86.3168">CHARACTER</text>
</g>
<g id="titre_1_">
	<text transform="matrix(1.0005 0 0 1 102.5005 501.3263)" fill="#EF6612" font-family="'Silkscreen'" font-size="86.3168">DESCRIPTION</text>
	<text transform="matrix(1.0005 0 0 1 98.4136 501.3263)" font-family="'Silkscreen'" font-size="86.3168">DESCRIPTION</text>
</g>
<g id="first_name">
	<text transform="matrix(1.0005 0 0 1 209.1516 219.5109)" fill="#EF6612" font-family="'Silkscreen'" font-size="31.973">FIRST NAME :</text>
	<text transform="matrix(1.0005 0 0 1 207.5051 219.5109)" font-family="'Silkscreen'" font-size="31.973">FIRST NAME :</text>
</g>
<g id="first_name_1_">
	<text transform="matrix(1.0005 0 0 1 209.1516 290.8249)" fill="#EF6612" font-family="'Silkscreen'" font-size="31.973">LAST NAME :</text>
	<text transform="matrix(1.0005 0 0 1 207.5051 290.8249)" font-family="'Silkscreen'" font-size="31.973">LAST NAME :</text>
</g>
<g id="job">
	<text transform="matrix(1.0005 0 0 1 208.0744 361.4196)" fill="#EF6612" font-family="'Silkscreen'" font-size="31.973">JOB :</text>
	<text transform="matrix(1.0005 0 0 1 206.4279 361.4196)" font-family="'Silkscreen'" font-size="31.973">JOB :</text>
</g>
<g>
	<rect x="86.294" y="321.412" fill="#890E06" width="11.689" height="11.107"/>
	<rect x="122.169" y="321.412" fill="#890E06" width="11.689" height="11.107"/>
	<rect x="135.781" y="304.011" fill="#CBAB96" width="13.953" height="14.822"/>
	<rect x="70.008" y="304.011" fill="#CBAB96" width="13.953" height="14.822"/>
	<polygon fill="#333333" points="143.917,293.25 75.224,293.25 75.224,309.656 80.87,309.656 80.87,316.123 87.698,316.123 
		87.698,321.821 129.35,321.821 129.35,316.123 137.316,316.123 137.316,309.656 143.917,309.656 	"/>
	<polygon fill="#CBAB96" points="148.794,259.48 69.625,259.48 69.625,276.73 75.224,276.73 75.224,283.301 84.692,283.301 
		84.692,291.467 132.084,291.467 132.084,283.301 142.767,283.301 142.767,276.73 148.794,276.73 	"/>
	<rect x="91.776" y="272.224" fill="#FFFFFF" width="9.857" height="12.198"/>
	<rect x="113.199" y="272.224" fill="#FFFFFF" width="9.857" height="12.198"/>
	<rect x="96.704" y="272.459" width="4.928" height="9.852"/>
	<rect x="113.199" y="272.459" width="4.928" height="9.852"/>
	<g>
		<polygon points="148.176,259.071 148.176,271.352 141.945,271.352 141.945,277.58 148.176,277.58 148.176,271.6 154.298,271.6 
			154.298,259.071 		"/>
		<polygon points="75.224,277.58 75.224,271.352 69.215,271.352 69.215,259.071 63.093,259.071 63.093,271.6 68.993,271.6 
			68.993,277.58 		"/>
		<polygon points="78.34,277.721 72.109,277.721 72.109,283.949 78.198,283.949 78.198,289.769 84.429,289.769 84.429,283.541 
			78.34,283.541 		"/>
		<polygon points="137.972,283.541 131.741,283.541 131.741,289.769 137.972,289.769 137.972,283.949 144.203,283.949 
			144.203,277.721 137.972,277.721 		"/>
	</g>
	<polygon fill="#493328" points="147.646,227.157 134.875,227.157 134.875,220.231 83.091,220.231 83.091,227.157 69.215,227.157 
		69.215,261.622 83.091,261.622 83.091,268.325 134.875,268.325 134.875,261.622 147.646,261.622 	"/>
	<polygon fill="#5A473E" points="136.576,247.443 133.05,247.443 133.05,243.549 83.255,243.549 83.255,247.216 80.17,247.216 
		80.17,256.02 83.255,256.02 83.255,259.636 90.746,259.636 90.746,264.635 125.118,264.635 125.118,259.636 133.05,259.636 
		133.05,255.569 136.576,255.569 	"/>
	<rect x="90.305" y="251.208" fill="#766862" width="36.135" height="5.767"/>
	<polygon fill="#5A473E" points="140.349,233.791 140.349,226.319 135.396,226.319 135.396,221.029 130.08,221.029 130.08,215.454 
		85.857,215.454 85.857,221.029 81.429,221.029 81.429,226.319 76.44,226.319 76.44,233.791 69.465,233.791 69.465,240.537 
		79.319,240.537 79.319,238.401 85.404,238.401 85.404,233.106 90.22,233.106 90.22,229.187 126.605,229.187 126.605,233.106 
		131.384,233.106 131.384,238.401 137.792,238.401 137.792,240.537 147.646,240.537 147.646,233.791 	"/>
	<polygon fill="#766862" points="135.383,223.092 135.383,221.052 130.067,221.052 130.067,218.901 85.843,218.901 85.843,221.052 
		81.415,221.052 81.415,223.092 76.426,223.092 76.426,228.87 85.391,228.87 85.391,225.711 90.206,225.711 90.206,224.199 
		126.592,224.199 126.592,225.711 131.371,225.711 131.371,228.87 140.335,228.87 140.335,223.092 	"/>
	<g>
		<rect x="63.093" y="234.698" width="6.122" height="16.283"/>
		<rect x="147.646" y="234.698" width="6.122" height="16.283"/>
		<rect x="69.215" y="227.452" width="6.886" height="6.926"/>
		<polygon points="134.447,267.824 83.326,267.824 83.326,261.867 76.44,261.867 76.44,268.793 83.326,268.793 83.326,274.749 
			134.447,274.749 134.447,268.793 141.333,268.793 141.333,261.867 134.447,261.867 		"/>
		<rect x="69.215" y="251.163" width="6.886" height="10.459"/>
		<rect x="140.76" y="251.163" width="6.886" height="10.459"/>
		<rect x="140.472" y="227.452" width="6.886" height="6.926"/>
		<rect x="76.44" y="220.231" width="6.886" height="6.926"/>
		<polygon points="133.383,227.157 140.269,227.157 140.269,220.231 133.548,220.231 133.548,213.305 83.326,213.305 
			83.326,220.231 133.383,220.231 		"/>
	</g>
	<g id="barbe_1_">
		<polygon fill="#9B532F" points="131.129,278.88 131.129,282.501 129.5,282.501 129.5,288.385 126.013,288.385 126.013,291.574 
			120.934,291.574 120.934,290.02 117.225,290.02 117.225,287.122 101.159,287.122 101.159,290.02 96.281,290.02 96.281,291.574 
			91.052,291.574 91.052,288.385 87.316,288.385 87.316,282.501 86.102,282.501 86.102,278.88 76.985,278.88 76.985,285.002 
			82.087,285.002 82.087,290.02 84.079,290.02 84.079,295.086 84.429,295.086 84.429,299.718 88.313,299.718 88.313,303.586 
			93.791,303.586 93.791,306.691 99.02,306.691 99.02,307.999 102.88,307.999 102.88,310.614 106.242,310.614 106.242,313.556 
			117.199,313.556 117.199,310.614 119.689,310.614 119.689,306.691 124.295,306.691 124.295,303.586 128.155,303.586 
			128.155,299.718 131.741,299.718 131.741,295.086 132.986,295.086 132.986,290.02 134.729,290.02 134.729,285.002 
			140.247,285.002 140.247,278.88 		"/>
		<polygon fill="#A04811" points="131.779,284.422 131.779,287.732 130.122,287.732 130.122,293.111 126.578,293.111 
			126.578,296.027 121.415,296.027 121.415,294.606 117.645,294.606 117.645,291.956 101.315,291.956 101.315,294.606 
			96.356,294.606 96.356,296.027 91.041,296.027 91.041,293.111 87.244,293.111 87.244,287.732 86.009,287.732 86.009,284.422 
			76.742,284.422 76.742,290.019 81.928,290.019 81.928,294.606 83.953,294.606 83.953,299.238 84.309,299.238 84.309,303.472 
			88.257,303.472 88.257,307.008 93.825,307.008 93.825,309.847 99.141,309.847 99.141,311.043 103.064,311.043 103.064,313.433 
			106.481,313.433 106.481,316.123 117.618,316.123 117.618,313.433 120.149,313.433 120.149,309.847 124.832,309.847 
			124.832,307.008 128.756,307.008 128.756,303.472 132.4,303.472 132.4,299.238 133.666,299.238 133.666,294.606 135.437,294.606 
			135.437,290.019 141.046,290.019 141.046,284.422 		"/>
		<polygon fill="#9B532F" points="130.586,288.651 130.586,291.961 129.033,291.961 129.033,297.34 125.712,297.34 125.712,300.256 
			120.872,300.256 120.872,298.835 117.339,298.835 117.339,296.185 102.033,296.185 102.033,298.835 97.385,298.835 
			97.385,300.256 92.403,300.256 92.403,297.34 88.845,297.34 88.845,291.961 87.687,291.961 87.687,288.651 79.002,288.651 
			79.002,294.248 83.863,294.248 83.863,298.835 85.761,298.835 85.761,303.467 86.094,303.467 86.094,307.702 89.794,307.702 
			89.794,311.237 95.013,311.237 95.013,314.076 99.995,314.076 99.995,315.272 103.672,315.272 103.672,317.662 106.875,317.662 
			106.875,320.352 117.314,320.352 117.314,317.662 119.686,317.662 119.686,314.076 124.075,314.076 124.075,311.237 
			127.752,311.237 127.752,307.702 131.168,307.702 131.168,303.467 132.354,303.467 132.354,298.835 134.015,298.835 
			134.015,294.248 139.272,294.248 139.272,288.651 		"/>
		<rect x="98.188" y="304.068" fill="#A04811" width="5.493" height="3.643"/>
		<rect x="91.307" y="303.732" fill="#A04811" width="5.493" height="3.643"/>
		<rect x="104.438" y="299.459" fill="#A04811" width="3.976" height="4.553"/>
		<rect x="126.739" y="298.906" fill="#A04811" width="3.976" height="4.553"/>
		<rect x="114.357" y="300.425" fill="#A04811" width="3.976" height="3.643"/>
		<rect x="95.991" y="302.032" fill="#A04811" width="3.976" height="3.643"/>
		<rect x="88.987" y="301.541" fill="#A04811" width="3.976" height="3.643"/>
		<rect x="102.45" y="307.375" fill="#A04811" width="3.976" height="3.643"/>
		<rect x="113.6" y="311.467" fill="#A04811" width="3.976" height="3.643"/>
		<rect x="117.726" y="307.669" fill="#A04811" width="3.976" height="3.643"/>
		<rect x="121.439" y="302.817" fill="#A04811" width="6.574" height="3.643"/>
		<rect x="110.141" y="304.252" fill="#A04811" width="5.594" height="3.643"/>
		<rect x="106.258" y="308.096" fill="#A04811" width="3.976" height="4.892"/>
		<rect x="108.246" y="312.148" fill="#A04811" width="3.976" height="4.892"/>
	</g>
	<rect x="121.997" y="330.874" width="12.033" height="6.474"/>
	<g>
		<path d="M86.204,315.385v-6.474h-4.697v-4.9H76.44v-4.114h3.238v-6.474h-6.477v5.586h-3.238v5.422h-6.477v10.728h6.477v6.177
			h9.715v9.709h6.477v-15.661H86.204z M79.728,314.864h-0.049h-9.715v-9.38h5.068v5.002h4.697V314.864z"/>
		<rect x="86.204" y="315.597" width="6.477" height="6.474"/>
		<polygon points="127.043,321.794 92.752,321.794 92.752,328.267 94.741,328.267 94.741,331.046 86.155,331.046 86.155,337.52 
			98.188,337.52 98.188,331.292 125.067,331.292 125.067,328.267 127.224,328.267 127.224,322.07 133.52,322.07 133.52,315.597 
			127.043,315.597 		"/>
		<path d="M149.542,304.432v-5.422h-6.244v-5.586h-6.477v6.474h6.244v4.114h-4.766v4.9h-4.53v5.952l0,0v16.182h6.477v-9.709h9.487
			v-6.177h5.731v-10.728H149.542z M148.987,314.864h-8.741v-4.379h4.53v-5.002h4.211V314.864z"/>
	</g>
</g>
<g id="gilles__x5F_">
	<rect x="450.097" y="218.398" fill="#EF6612" width="26.176" height="4.312"/>
	<rect x="484.218" y="218.398" fill="#EF6612" width="26.176" height="4.312"/>
	<rect x="518.338" y="218.398" fill="#EF6612" width="26.176" height="4.312"/>
	<rect x="552.458" y="218.398" fill="#EF6612" width="26.176" height="4.312"/>
	<rect x="586.579" y="218.398" fill="#EF6612" width="26.176" height="4.312"/>
	<rect x="620.699" y="218.398" fill="#EF6612" width="26.176" height="4.312"/>
	<rect x="447.449" y="218.864" width="26.176" height="4.312"/>
	<rect x="481.569" y="218.864" width="26.176" height="4.312"/>
	<rect x="515.69" y="218.864" width="26.176" height="4.312"/>
	<rect x="549.81" y="218.864" width="26.176" height="4.312"/>
	<rect x="583.93" y="218.864" width="26.176" height="4.312"/>
	<rect x="618.051" y="218.864" width="26.176" height="4.312"/>
</g>
<g id="delmotte__x5F_">
	<rect x="450.097" y="286.049" fill="#EF6612" width="26.176" height="4.312"/>
	<rect x="484.218" y="286.049" fill="#EF6612" width="26.176" height="4.312"/>
	<rect x="518.338" y="286.049" fill="#EF6612" width="26.176" height="4.312"/>
	<rect x="555.461" y="286.049" fill="#EF6612" width="26.176" height="4.312"/>
	<rect x="595.588" y="286.049" fill="#EF6612" width="26.176" height="4.312"/>
	<rect x="629.708" y="286.049" fill="#EF6612" width="26.176" height="4.312"/>
	<rect x="447.449" y="286.514" width="26.176" height="4.312"/>
	<rect x="481.569" y="286.514" width="26.176" height="4.312"/>
	<rect x="515.69" y="286.514" width="26.176" height="4.312"/>
	<rect x="552.813" y="286.514" width="26.176" height="4.312"/>
	<rect x="592.94" y="286.514" width="26.176" height="4.312"/>
	<rect x="627.06" y="286.514" width="26.176" height="4.312"/>
	<rect x="663.927" y="286.049" fill="#EF6612" width="26.176" height="4.312"/>
	<rect x="698.047" y="286.049" fill="#EF6612" width="26.176" height="4.312"/>
	<rect x="661.279" y="286.514" width="26.176" height="4.312"/>
	<rect x="695.399" y="286.514" width="26.176" height="4.312"/>
</g>
<g id="web_designer__x5F_">
	<rect x="331.856" y="359.031" fill="#EF6612" width="26.176" height="4.312"/>
	<rect x="365.976" y="359.031" fill="#EF6612" width="26.176" height="4.312"/>
	<rect x="400.096" y="359.031" fill="#EF6612" width="26.176" height="4.312"/>
	<rect x="434.217" y="359.031" fill="#EF6612" width="26.176" height="4.312"/>
	<rect x="468.337" y="359.031" fill="#EF6612" width="26.176" height="4.312"/>
	<rect x="502.457" y="359.031" fill="#EF6612" width="26.176" height="4.312"/>
	<rect x="329.207" y="359.496" width="26.176" height="4.312"/>
	<rect x="363.328" y="359.496" width="26.176" height="4.312"/>
	<rect x="397.448" y="359.496" width="26.176" height="4.312"/>
	<rect x="431.568" y="359.496" width="26.176" height="4.312"/>
	<rect x="465.689" y="359.496" width="26.176" height="4.312"/>
	<rect x="499.809" y="359.496" width="26.176" height="4.312"/>
	<rect x="536.676" y="359.031" fill="#EF6612" width="26.176" height="4.312"/>
	<rect x="570.796" y="359.031" fill="#EF6612" width="26.176" height="4.312"/>
	<rect x="534.028" y="359.496" width="26.176" height="4.312"/>
	<rect x="568.148" y="359.496" width="26.176" height="4.312"/>
	<rect x="605.088" y="359.031" fill="#EF6612" width="26.176" height="4.312"/>
	<rect x="602.44" y="359.496" width="26.176" height="4.312"/>
	<rect x="642.878" y="359.031" fill="#EF6612" width="26.176" height="4.312"/>
	<rect x="683.005" y="359.031" fill="#EF6612" width="26.176" height="4.312"/>
	<rect x="640.23" y="359.496" width="26.176" height="4.312"/>
	<rect x="680.357" y="359.496" width="26.176" height="4.312"/>
	<rect x="717.716" y="359.031" fill="#EF6612" width="26.176" height="4.312"/>
	<rect x="715.068" y="359.496" width="26.176" height="4.312"/>
</g>
<g>
	<path d="M454.837,206.654h-6.229v-18.677h6.229V206.654z M473.524,187.977h-18.687v-6.226h18.687V187.977z M467.295,212.88h-12.458
		v-6.226h12.458V212.88z M467.295,200.428h-6.229v-6.226h12.458v12.452h-6.229V200.428z"/>
	<path d="M491.602,212.88v-31.129h6.23v31.129H491.602z"/>
	<path d="M525.442,206.654H537.9v6.226h-18.688v-31.129h6.229V206.654z"/>
	<path d="M560.272,206.654h12.458v6.226h-18.688v-31.129h6.229V206.654z"/>
	<path d="M603.874,187.977h-12.458v6.225h12.458v6.226h-12.458v6.226h12.458v6.226h-18.688v-31.129h18.688V187.977z"/>
	<path d="M616.331,187.977h6.229v6.225h-6.229V187.977z M616.331,212.88v-6.226h18.688v6.226H616.331z M622.56,187.977v-6.226
		h18.687v6.226H622.56z M622.56,200.428h12.458v-6.226H622.56V200.428z M635.018,200.428h6.229v6.226h-6.229V200.428z"/>
</g>
<g>
	<path d="M325.779,347.263v-24.904h6.23v24.904H325.779z M332.008,347.263h6.229v6.225h-6.229V347.263z M338.237,347.263v-18.677
		h6.23v18.677H338.237z M344.467,347.263h6.229v6.225h-6.229V347.263z M350.695,347.263v-24.904h6.23v24.904H350.695z"/>
	<path d="M388.069,328.586h-12.458v6.226h12.458v6.225h-12.458v6.226h12.458v6.225h-18.688v-31.129h18.688V328.586z"/>
	<path d="M419.213,328.586h-12.458v6.226h12.458v6.225h-12.458v6.226h12.458v6.225h-18.688v-31.129h18.688V328.586z
		 M425.442,328.586v6.226h-6.229v-6.226H425.442z M425.442,341.037v6.226h-6.229v-6.226H425.442z"/>
	<path d="M469.629,353.489v-31.129h18.688v6.226h-12.458v18.677h12.458v6.225H469.629z M494.546,328.586v18.677h-6.229v-18.677
		H494.546z"/>
	<path d="M525.69,328.586h-12.458v6.226h12.458v6.225h-12.458v6.226h12.458v6.225h-18.688v-31.129h18.688V328.586z"/>
	<path d="M538.147,328.586h6.229v6.226h-6.229V328.586z M538.147,353.489v-6.225h18.688v6.225H538.147z M544.377,328.586v-6.226
		h18.687v6.226H544.377z M544.377,341.037h12.458v-6.225h-12.458V341.037z M556.835,341.037h6.229v6.226h-6.229V341.037z"/>
	<path d="M579.945,353.489v-31.129h6.23v31.129H579.945z"/>
	<path d="M608.877,347.263h-6.229v-18.677h6.229V347.263z M627.563,328.586h-18.687v-6.226h18.687V328.586z M621.335,353.489
		h-12.458v-6.225h12.458V353.489z M621.335,341.037h-6.229v-6.225h12.458v12.452h-6.229V341.037z"/>
	<path d="M637.804,353.489v-31.129h6.23v31.129H637.804z M644.034,328.586h6.229v6.226h-6.229V328.586z M650.262,334.811h6.23v6.225
		h-6.23V334.811z M656.492,341.037h6.229v6.226h-6.229V341.037z M662.72,353.489v-31.129h6.23v31.129H662.72z"/>
	<path d="M700.094,328.586h-12.458v6.226h12.458v6.225h-12.458v6.226h12.458v6.225h-18.688v-31.129h18.688V328.586z"/>
	<path d="M712.551,353.489v-31.129h18.688v6.226H718.78v6.226h12.458v6.225H718.78v12.452H712.551z M725.009,341.037h6.229v6.226
		h-6.229V341.037z M731.238,328.586h6.229v6.226h-6.229V328.586z M731.238,347.263h6.229v6.225h-6.229V347.263z"/>
</g>
<g>
	<path d="M449.646,282.897v-31.129h18.688v6.226h-12.458v18.677h12.458v6.226H449.646z M474.562,257.993v18.677h-6.229v-18.677
		H474.562z"/>
	<path d="M505.706,257.993h-12.458v6.225h12.458v6.226h-12.458v6.226h12.458v6.226h-18.688v-31.129h18.688V257.993z"/>
	<path d="M527.396,276.671h12.458v6.226h-18.688v-31.129h6.229V276.671z"/>
	<path d="M552.746,282.897v-31.129h6.229v31.129H552.746z M558.976,257.993h6.229v6.225h-6.229V257.993z M565.204,264.219h6.229
		v6.226h-6.229V264.219z M571.434,257.993h6.229v6.225h-6.229V257.993z M577.663,282.897v-31.129h6.229v31.129H577.663z"/>
	<path d="M599.792,276.671h-6.23v-18.677h6.23V276.671z M612.25,257.993h-12.458v-6.226h12.458V257.993z M612.25,282.897h-12.458
		v-6.226h12.458V282.897z M618.479,276.671h-6.229v-18.677h6.229V276.671z"/>
	<path d="M637.166,282.897v-24.903h-6.23v-6.226h18.688v6.226h-6.23v24.903H637.166z"/>
	<path d="M669.511,282.897v-24.903h-6.229v-6.226h18.688v6.226h-6.229v24.903H669.511z"/>
	<path d="M714.916,257.993h-12.458v6.225h12.458v6.226h-12.458v6.226h12.458v6.226h-18.688v-31.129h18.688V257.993z"/>
</g>
<rect x="101" y="563.175" fill="none" width="600" height="275.898"/>
<text transform="matrix(1 0 0 1 101 576.8596)"><tspan x="0" y="0" font-family="'Silkscreen'" font-size="23">Gilles is a bit lazy person and he likes </tspan><tspan x="0" y="27.601" font-family="'Silkscreen'" font-size="23">sleeping ! But when he&apos;s ready and if he&apos;s </tspan><tspan x="0" y="55.2" font-family="'Silkscreen'" font-size="23">doing something he like nothing can stop </tspan><tspan x="0" y="82.8" font-family="'Silkscreen'" font-size="23">him. Gilles isn&apos;t a big athlete but every </tspan><tspan x="0" y="110.4" font-family="'Silkscreen'" font-size="23">week he&apos;s playing tennis. During his free </tspan><tspan x="0" y="138" font-family="'Silkscreen'" font-size="23">time, gilles likes playing video games and </tspan><tspan x="0" y="165.601" font-family="'Silkscreen'" font-size="23">watching series on netflix. If you want </tspan><tspan x="0" y="193.2" font-family="'Silkscreen'" font-size="23">to contact him, you can send him an </tspan><tspan x="0" y="220.8" font-family="'Silkscreen'" font-size="23">email at gilles.delmotte@outlook.be or </tspan><tspan x="0" y="248.4" font-family="'Silkscreen'" font-size="23">give him a call at 04 97 36 85 95</tspan></text>
</svg>
