<?xml version="1.0" encoding="utf-8"?>
<!-- Generator: Adobe Illustrator 17.0.0, SVG Export Plug-In . SVG Version: 6.00 Build 0)  -->
<!DOCTYPE svg PUBLIC "-//W3C//DTD SVG 1.1//EN" "http://www.w3.org/Graphics/SVG/1.1/DTD/svg11.dtd">
<svg version="1.1" id="Calque_1" xmlns="http://www.w3.org/2000/svg" xmlns:xlink="http://www.w3.org/1999/xlink" x="0px" y="0px"
	 width="800px" height="801.079px" viewBox="0 0 800 801.079" enable-background="new 0 0 800 801.079" xml:space="preserve">
<g id="background">
	<polygon opacity="0.7" fill="#606060" points="783.669,38.272 783.669,12.246 321.33,12.246 319.032,12.246 18.915,12.246 
		18.915,38.272 12.833,38.272 12.833,51.639 12.833,51.973 12.833,762.806 18.915,762.806 18.915,788.833 319.032,788.833 
		321.33,788.833 783.669,788.833 783.669,762.806 789.75,762.806 789.75,51.973 789.75,51.639 789.75,38.272 	"/>
	<g>
		<rect x="24.997" y="6.079" fill="#3F1717" width="13.611" height="6.079"/>
		<rect x="12.833" y="18.412" fill="#3F1717" width="6.082" height="13.605"/>
		<rect x="18.915" y="12.157" fill="#3F1717" width="6.082" height="6.255"/>
		<rect x="6.752" y="32.017" fill="#3F1717" width="6.082" height="6.255"/>
		<rect x="24.997" y="788.921" fill="#3F1717" width="13.611" height="6.079"/>
		<rect x="12.833" y="769.062" fill="#3F1717" width="6.082" height="13.605"/>
		<polygon fill="#3F1717" points="6.752,51.589 6.752,38.272 0.67,38.272 0.67,51.589 0.67,52.023 0.67,762.806 6.752,762.806 
			6.752,52.023 		"/>
		<rect x="18.915" y="782.666" fill="#3F1717" width="6.082" height="6.255"/>
		<rect x="6.752" y="762.806" fill="#3F1717" width="6.082" height="6.255"/>
		<polygon fill="#3F1717" points="321.33,6.079 763.976,6.079 763.976,0 321.33,0 319.032,0 38.608,0 38.608,6.079 319.032,6.079 		
			"/>
		<rect x="763.976" y="6.079" fill="#3F1717" width="13.611" height="6.079"/>
		<rect x="783.669" y="18.412" fill="#3F1717" width="6.082" height="13.605"/>
		<rect x="777.587" y="12.157" fill="#3F1717" width="6.082" height="6.255"/>
		<rect x="789.75" y="32.017" fill="#3F1717" width="6.082" height="6.255"/>
		<polygon fill="#3F1717" points="319.032,795 38.608,795 38.608,801.079 319.032,801.079 321.33,801.079 763.976,801.079 
			763.976,795 321.33,795 		"/>
		<rect x="763.976" y="788.921" fill="#3F1717" width="13.611" height="6.079"/>
		<rect x="783.669" y="769.062" fill="#3F1717" width="6.082" height="13.605"/>
		<polygon fill="#3F1717" points="795.832,38.272 795.832,51.589 795.832,52.023 795.832,762.806 801.914,762.806 801.914,52.023 
			801.914,51.589 801.914,38.272 		"/>
		<rect x="777.587" y="782.666" fill="#3F1717" width="6.082" height="6.255"/>
		<rect x="789.75" y="762.806" fill="#3F1717" width="6.082" height="6.255"/>
	</g>
	<g>
		<rect x="24.997" y="12.246" fill="#EF6612" width="13.611" height="6.167"/>
		<polygon fill="#EF6612" points="24.997,24.674 31.046,24.674 31.046,18.419 24.997,18.419 24.997,18.412 18.915,18.412 
			18.915,32.017 24.997,32.017 		"/>
		<rect x="12.833" y="32.017" fill="#EF6612" width="6.082" height="6.255"/>
		<rect x="24.997" y="782.666" fill="#EF6612" width="13.611" height="6.167"/>
		<polygon fill="#EF6612" points="31.046,782.66 31.046,776.405 24.997,776.405 24.997,769.062 18.915,769.062 18.915,782.666 
			24.997,782.666 24.997,782.66 		"/>
		<polygon fill="#EF6612" points="12.833,51.589 12.833,38.272 6.752,38.272 6.752,51.589 6.752,52.023 6.752,762.806 
			12.833,762.806 12.833,52.023 		"/>
		<rect x="12.833" y="762.806" fill="#EF6612" width="6.082" height="6.255"/>
		<polygon fill="#EF6612" points="321.33,12.157 763.976,12.157 763.976,6.079 321.33,6.079 319.032,6.079 38.608,6.079 
			38.608,12.157 319.032,12.157 		"/>
		<rect x="763.976" y="12.246" fill="#EF6612" width="13.611" height="6.167"/>
		<polygon fill="#EF6612" points="777.587,18.412 777.587,18.419 771.537,18.419 771.537,24.674 777.587,24.674 777.587,32.017 
			783.669,32.017 783.669,18.412 		"/>
		<rect x="783.669" y="32.017" fill="#EF6612" width="6.082" height="6.255"/>
		<polygon fill="#EF6612" points="319.032,788.921 38.608,788.921 38.608,795 319.032,795 321.33,795 763.976,795 763.976,788.921 
			321.33,788.921 		"/>
		<rect x="763.976" y="782.666" fill="#EF6612" width="13.611" height="6.167"/>
		<polygon fill="#EF6612" points="777.587,776.405 771.537,776.405 771.537,782.66 777.587,782.66 777.587,782.666 783.669,782.666 
			783.669,769.062 777.587,769.062 		"/>
		<polygon fill="#EF6612" points="789.75,38.272 789.75,51.589 789.75,52.023 789.75,762.806 795.832,762.806 795.832,52.023 
			795.832,51.589 795.832,38.272 		"/>
		<rect x="783.669" y="762.806" fill="#EF6612" width="6.082" height="6.255"/>
	</g>
</g>
<g id="skills">
	<text transform="matrix(1 0 0 1 194.724 133.1896)" fill="#EF6612" font-family="'Silkscreen'" font-size="85">contact</text>
	<text transform="matrix(1 0 0 1 190.7012 133.1896)" font-family="'Silkscreen'" font-size="85">CONTACT</text>
</g>
<g>
	<path fill="#EF6612" d="M190.915,226.264v-11.67h-5.763v-5.907h-17.289V203.5h-62.53v5.187H88.043v5.907H82.28v11.67h-5.475v16.713
		h5.475h3.458h19.595v-17.289h62.53v17.289h-5.763v-2.665v-2.954v-5.907h-17.001v5.907h-17.001v-5.907h-6.051h-1.729h-9.221v11.526
		h-5.763v5.763h-6.051v5.763h-4.611v10.95h-6.628v5.763H82.28v17.001h5.763v6.051h6.628h4.611h1.441h4.034h0.576h5.763h0.864h2.017
		h5.475h2.593h62.53v-6.051h6.339v-11.526v-5.475h-6.339v-5.187h-5.187v-6.051v-5.187h-5.475v-0.288v-0.576v-5.187h-6.051v-5.475
		h8.933h14.12h5.763v-17.001H190.915z M127.521,266.03v5.187h-5.475v-5.187H127.521z M122.046,259.979v-5.475h5.475v5.475H122.046z
		 M134.725,266.03h4.61v5.187h-4.61V266.03z M151.149,271.217h-6.051v-5.187h6.051V271.217z M139.335,276.692v6.339h-4.61v-6.339
		H139.335z M145.098,276.692h5.475v6.339h-5.475V276.692z M151.149,259.979h-6.051v-5.475h6.051V259.979z M139.335,259.979h-4.61
		v-5.475h4.61V259.979z M134.725,248.741v-5.475h4.61v5.475H134.725z M125.792,243.266h1.729v5.475h-5.475v-5.475H125.792z
		 M122.046,276.692h5.475v6.339h-5.475V276.692z M145.098,248.741v-5.475h6.051v5.475H145.098z"/>
	<path d="M187.938,228.953v-11.67h-5.763v-5.907h-17.289v-5.187h-62.53v5.187H85.067v5.907h-5.763v11.67h-5.475v16.713h5.475h3.458
		h19.595v-17.289h62.53v17.289h-5.763V243v-2.954v-5.907h-17.001v5.907H125.12v-5.907h-6.051h-1.729h-9.221v11.526h-5.763v5.763
		h-6.051v5.763h-4.611v10.95h-6.628v5.763h-5.763v17.001h5.763v6.051h6.628h4.611h1.441h4.034h0.576h5.763h0.864h2.017h5.475h2.593
		h62.53v-6.051h6.339V279.38v-5.475h-6.339v-5.187h-5.187v-6.051v-5.187h-5.475v-0.288v-0.576v-5.187h-6.051v-5.475h8.933h14.12
		h5.763v-17.001H187.938z M124.544,268.718v5.187h-5.475v-5.187H124.544z M119.069,262.667v-5.475h5.475v5.475H119.069z
		 M131.748,268.718h4.61v5.187h-4.61V268.718z M148.173,273.905h-6.051v-5.187h6.051V273.905z M136.358,279.38v6.339h-4.61v-6.339
		H136.358z M142.122,279.38h5.475v6.339h-5.475V279.38z M148.173,262.667h-6.051v-5.475h6.051V262.667z M136.358,262.667h-4.61
		v-5.475h4.61V262.667z M131.748,251.429v-5.475h4.61v5.475H131.748z M122.815,245.954h1.729v5.475h-5.475v-5.475H122.815z
		 M119.069,279.38h5.475v6.339h-5.475V279.38z M142.122,251.429v-5.475h6.051v5.475H142.122z"/>
</g>
<g>
	<g opacity="0.7">
		<text transform="matrix(1 0 0 1 56.2518 466.2628)" fill="#EC6513" font-family="'Silkscreen'" font-size="195.3945">@</text>
	</g>
	<text transform="matrix(1 0 0 1 51.8445 469.9576)" font-family="'Silkscreen'" font-size="195.3945">@</text>
</g>
<text transform="matrix(1 0 0 1 256.0077 274.7515)" font-family="'Silkscreen'" font-size="48.5314">04/97.36.85.95</text>
<text transform="matrix(1 0 0 1 257.0285 398.9908)"><tspan x="0" y="0" font-family="'Silkscreen'" font-size="48.5314">gilles.delmotte@</tspan><tspan x="0" y="58.237" font-family="'Silkscreen'" font-size="48.5314">outlook.be</tspan></text>
<text transform="matrix(1 0 0 1 257.0285 598.4858)"><tspan x="0" y="0" font-family="'Silkscreen'" font-size="48.5314">facebook.com/</tspan><tspan x="0" y="58.237" font-family="'Silkscreen'" font-size="48.5314">gilles.delmotte.9</tspan></text>
<g>
	<polygon fill="#EC6513" points="161.667,563.9 161.667,538.333 128.733,538.333 128.733,546.567 120.067,546.567 120.067,555.233 
		111.833,555.233 111.833,588.167 87.133,588.167 87.133,613.733 111.833,613.733 111.833,680.25 136.967,680.25 136.967,613.733 
		161.667,613.733 161.667,588.167 136.967,588.167 136.967,563.9 	"/>
	<polygon points="158.2,567.367 158.2,541.8 125.267,541.8 125.267,550.033 116.6,550.033 116.6,558.7 108.367,558.7 
		108.367,591.633 83.667,591.633 83.667,617.2 108.367,617.2 108.367,683.717 133.5,683.717 133.5,617.2 158.2,617.2 158.2,591.633 
		133.5,591.633 133.5,567.367 	"/>
</g>
</svg>
