<?xml version="1.0" encoding="utf-8"?>
<!-- Generator: Adobe Illustrator 17.0.0, SVG Export Plug-In . SVG Version: 6.00 Build 0)  -->
<!DOCTYPE svg PUBLIC "-//W3C//DTD SVG 1.1//EN" "http://www.w3.org/Graphics/SVG/1.1/DTD/svg11.dtd">
<svg version="1.1" id="Calque_1" xmlns="http://www.w3.org/2000/svg" xmlns:xlink="http://www.w3.org/1999/xlink" x="0px" y="0px"
	 width="800px" height="915.079px" viewBox="0 0 800 915.079" enable-background="new 0 0 800 915.079" xml:space="preserve">
<g id="background">
	<polygon opacity="0.7" fill="#606060" points="783.669,38.272 783.669,12.246 321.33,12.246 319.032,12.246 18.915,12.246 
		18.915,38.272 12.833,38.272 12.833,51.639 12.833,51.973 12.833,876.806 18.915,876.806 18.915,902.833 319.032,902.833 
		321.33,902.833 783.669,902.833 783.669,876.806 789.75,876.806 789.75,51.973 789.75,51.639 789.75,38.272 	"/>
	<g>
		<rect x="24.997" y="6.079" fill="#3F1717" width="13.611" height="6.079"/>
		<rect x="12.833" y="18.412" fill="#3F1717" width="6.082" height="13.605"/>
		<rect x="18.915" y="12.157" fill="#3F1717" width="6.082" height="6.255"/>
		<rect x="6.752" y="32.017" fill="#3F1717" width="6.082" height="6.255"/>
		<rect x="24.997" y="902.921" fill="#3F1717" width="13.611" height="6.079"/>
		<rect x="12.833" y="883.062" fill="#3F1717" width="6.082" height="13.605"/>
		<polygon fill="#3F1717" points="6.752,51.589 6.752,38.272 0.67,38.272 0.67,51.589 0.67,52.023 0.67,876.806 6.752,876.806 
			6.752,52.023 		"/>
		<rect x="18.915" y="896.666" fill="#3F1717" width="6.082" height="6.255"/>
		<rect x="6.752" y="876.806" fill="#3F1717" width="6.082" height="6.255"/>
		<polygon fill="#3F1717" points="321.33,6.079 763.976,6.079 763.976,0 321.33,0 319.032,0 38.608,0 38.608,6.079 319.032,6.079 		
			"/>
		<rect x="763.976" y="6.079" fill="#3F1717" width="13.611" height="6.079"/>
		<rect x="783.669" y="18.412" fill="#3F1717" width="6.082" height="13.605"/>
		<rect x="777.587" y="12.157" fill="#3F1717" width="6.082" height="6.255"/>
		<rect x="789.75" y="32.017" fill="#3F1717" width="6.082" height="6.255"/>
		<polygon fill="#3F1717" points="319.032,909 38.608,909 38.608,915.079 319.032,915.079 321.33,915.079 763.976,915.079 
			763.976,909 321.33,909 		"/>
		<rect x="763.976" y="902.921" fill="#3F1717" width="13.611" height="6.079"/>
		<rect x="783.669" y="883.062" fill="#3F1717" width="6.082" height="13.605"/>
		<polygon fill="#3F1717" points="795.832,38.272 795.832,51.589 795.832,52.023 795.832,876.806 801.914,876.806 801.914,52.023 
			801.914,51.589 801.914,38.272 		"/>
		<rect x="777.587" y="896.666" fill="#3F1717" width="6.082" height="6.255"/>
		<rect x="789.75" y="876.806" fill="#3F1717" width="6.082" height="6.255"/>
	</g>
	<g>
		<rect x="24.997" y="12.246" fill="#EF6612" width="13.611" height="6.167"/>
		<polygon fill="#EF6612" points="24.997,24.674 31.046,24.674 31.046,18.419 24.997,18.419 24.997,18.412 18.915,18.412 
			18.915,32.017 24.997,32.017 		"/>
		<rect x="12.833" y="32.017" fill="#EF6612" width="6.082" height="6.255"/>
		<rect x="24.997" y="896.666" fill="#EF6612" width="13.611" height="6.167"/>
		<polygon fill="#EF6612" points="31.046,896.66 31.046,890.405 24.997,890.405 24.997,883.062 18.915,883.062 18.915,896.666 
			24.997,896.666 24.997,896.66 		"/>
		<polygon fill="#EF6612" points="12.833,51.589 12.833,38.272 6.752,38.272 6.752,51.589 6.752,52.023 6.752,876.806 
			12.833,876.806 12.833,52.023 		"/>
		<rect x="12.833" y="876.806" fill="#EF6612" width="6.082" height="6.255"/>
		<polygon fill="#EF6612" points="321.33,12.157 763.976,12.157 763.976,6.079 321.33,6.079 319.032,6.079 38.608,6.079 
			38.608,12.157 319.032,12.157 		"/>
		<rect x="763.976" y="12.246" fill="#EF6612" width="13.611" height="6.167"/>
		<polygon fill="#EF6612" points="777.587,18.412 777.587,18.419 771.537,18.419 771.537,24.674 777.587,24.674 777.587,32.017 
			783.669,32.017 783.669,18.412 		"/>
		<rect x="783.669" y="32.017" fill="#EF6612" width="6.082" height="6.255"/>
		<polygon fill="#EF6612" points="319.032,902.921 38.608,902.921 38.608,909 319.032,909 321.33,909 763.976,909 763.976,902.921 
			321.33,902.921 		"/>
		<rect x="763.976" y="896.666" fill="#EF6612" width="13.611" height="6.167"/>
		<polygon fill="#EF6612" points="777.587,890.405 771.537,890.405 771.537,896.66 777.587,896.66 777.587,896.666 783.669,896.666 
			783.669,883.062 777.587,883.062 		"/>
		<polygon fill="#EF6612" points="789.75,38.272 789.75,51.589 789.75,52.023 789.75,876.806 795.832,876.806 795.832,52.023 
			795.832,51.589 795.832,38.272 		"/>
		<rect x="783.669" y="876.806" fill="#EF6612" width="6.082" height="6.255"/>
	</g>
</g>
<g id="js">
	<g id="logo_js" opacity="0.2">
		<polygon fill="#E5A315" points="80.034,398.553 84.56,398.553 84.56,433.297 89.582,433.297 89.582,447.617 98.84,447.617 
			98.84,451.035 107.736,451.035 107.736,454.615 116.43,454.615 116.43,457.71 121.216,457.71 121.216,454.615 121.216,453.306 
			121.216,451.035 121.216,448.909 121.216,447.617 121.216,445.054 121.216,433.297 121.216,425.007 121.216,398.553 
			121.216,396.478 121.216,362.397 80.034,362.397 		"/>
		<g>
			<polygon points="80.007,359.261 76.587,359.261 76.587,362.25 76.587,365.262 80.007,365.262 80.007,362.25 121.216,362.25 
				121.216,359.261 			"/>
			<rect x="80.034" y="365.262" width="3.42" height="33.292"/>
			<rect x="83.481" y="398.553" width="3.421" height="34.743"/>
			<rect x="86.927" y="433.297" width="3.42" height="14.321"/>
			<rect x="90.348" y="447.617" width="8.694" height="3.338"/>
			<rect x="99.042" y="451.035" width="8.694" height="3.338"/>
			<rect x="107.736" y="454.372" width="8.694" height="3.338"/>
			<rect x="116.43" y="457.71" width="4.786" height="3.609"/>
		</g>
		<polygon fill="#E5A315" points="162.398,398.553 157.872,398.553 157.872,433.297 152.85,433.297 152.85,447.617 143.591,447.617 
			143.591,451.035 134.695,451.035 134.695,454.615 126.001,454.615 126.001,457.71 121.216,457.71 121.216,454.615 
			121.216,453.306 121.216,451.035 121.216,448.909 121.216,447.617 121.216,445.054 121.216,433.297 121.216,425.007 
			121.216,398.553 121.216,396.478 121.216,362.397 162.398,362.397 		"/>
		<g>
			<polygon points="162.424,359.261 165.844,359.261 165.844,362.25 165.844,365.262 162.424,365.262 162.424,362.25 
				121.216,362.25 121.216,359.261 			"/>
			<rect x="158.977" y="365.262" width="3.42" height="33.292"/>
			<rect x="155.53" y="398.553" width="3.421" height="34.743"/>
			<rect x="152.084" y="433.297" width="3.42" height="14.321"/>
			<rect x="143.389" y="447.617" width="8.694" height="3.338"/>
			<rect x="134.695" y="451.035" width="8.694" height="3.338"/>
			<rect x="126.001" y="454.372" width="8.694" height="3.338"/>
			<rect x="121.216" y="457.71" width="4.786" height="3.609"/>
		</g>
		<polygon fill="#EDEDED" points="144.509,398.289 134.323,398.289 132.825,387.985 110.805,387.396 109.457,403.147 
			144.959,403.441 141.813,434.795 120.542,440.831 99.27,434.943 97.473,418.456 108.708,418.456 109.007,426.552 120.242,430.085 
			131.926,426.699 132.975,413.745 97.922,413.598 100.918,376.356 142.861,376.503 		"/>
		<polygon opacity="0.2" fill="#FFFFFF" points="153.039,398.744 149.604,398.744 149.604,430.548 145.794,430.548 145.794,443.657 
			138.768,443.657 138.768,446.785 132.018,446.785 132.018,450.062 125.421,450.062 125.421,452.896 121.789,452.896 
			121.789,450.062 121.789,448.864 121.789,446.785 121.789,444.839 121.789,443.657 121.789,441.31 121.789,430.548 
			121.789,422.959 121.789,398.744 121.789,396.844 121.789,365.647 153.039,365.647 		"/>
		<polygon points="118.837,337.631 118.837,353.746 106.373,353.746 106.373,348.75 113.425,348.75 113.425,337.631 		"/>
		<polygon points="135.728,342.708 129.043,342.708 136.058,349.927 136.058,353.901 121.366,353.901 121.366,349.521 
			128.217,349.521 121.531,342.221 121.531,338.166 135.646,338.166 		"/>
	</g>
	<g id="logo_js_1_">
		<polygon fill="#E5A315" points="76.656,400.536 81.182,400.536 81.182,435.279 86.204,435.279 86.204,449.6 95.463,449.6 
			95.463,453.017 104.358,453.017 104.358,456.598 113.053,456.598 113.053,459.693 117.838,459.693 117.838,456.598 
			117.838,455.289 117.838,453.017 117.838,450.892 117.838,449.6 117.838,447.036 117.838,435.279 117.838,426.989 
			117.838,400.536 117.838,398.46 117.838,364.38 76.656,364.38 		"/>
		<g>
			<polygon points="76.63,361.243 73.209,361.243 73.209,364.232 73.209,367.244 76.63,367.244 76.63,364.232 117.838,364.232 
				117.838,361.243 			"/>
			<rect x="76.656" y="367.244" width="3.42" height="33.292"/>
			<rect x="80.103" y="400.536" width="3.421" height="34.743"/>
			<rect x="83.55" y="435.279" width="3.42" height="14.321"/>
			<rect x="86.97" y="449.6" width="8.694" height="3.338"/>
			<rect x="95.664" y="453.017" width="8.694" height="3.338"/>
			<rect x="104.358" y="456.355" width="8.694" height="3.338"/>
			<rect x="113.053" y="459.693" width="4.786" height="3.609"/>
		</g>
		<polygon fill="#E5A315" points="159.02,400.536 154.494,400.536 154.494,435.279 149.472,435.279 149.472,449.6 140.214,449.6 
			140.214,453.017 131.318,453.017 131.318,456.598 122.624,456.598 122.624,459.693 117.838,459.693 117.838,456.598 
			117.838,455.289 117.838,453.017 117.838,450.892 117.838,449.6 117.838,447.036 117.838,435.279 117.838,426.989 
			117.838,400.536 117.838,398.46 117.838,364.38 159.02,364.38 		"/>
		<g>
			<polygon points="159.046,361.243 162.467,361.243 162.467,364.232 162.467,367.244 159.046,367.244 159.046,364.232 
				117.838,364.232 117.838,361.243 			"/>
			<rect x="155.6" y="367.244" width="3.42" height="33.292"/>
			<rect x="152.153" y="400.536" width="3.421" height="34.743"/>
			<rect x="148.706" y="435.279" width="3.42" height="14.321"/>
			<rect x="140.012" y="449.6" width="8.694" height="3.338"/>
			<rect x="131.318" y="453.017" width="8.694" height="3.338"/>
			<rect x="122.624" y="456.355" width="8.694" height="3.338"/>
			<rect x="117.838" y="459.693" width="4.786" height="3.609"/>
		</g>
		<polygon fill="#EDEDED" points="141.132,400.272 130.945,400.272 129.447,389.968 107.427,389.379 106.079,405.129 
			141.581,405.424 138.435,436.778 117.164,442.813 95.893,436.925 94.095,420.439 105.33,420.439 105.63,428.535 116.864,432.068 
			128.549,428.682 129.597,415.728 94.545,415.581 97.541,378.339 139.484,378.486 		"/>
		<polygon opacity="0.2" fill="#FFFFFF" points="149.661,400.727 146.227,400.727 146.227,432.53 142.416,432.53 142.416,445.64 
			135.39,445.64 135.39,448.768 128.64,448.768 128.64,452.045 122.043,452.045 122.043,454.878 118.412,454.878 118.412,452.045 
			118.412,450.847 118.412,448.768 118.412,446.822 118.412,445.64 118.412,443.293 118.412,432.53 118.412,424.942 
			118.412,400.727 118.412,398.827 118.412,367.63 149.661,367.63 		"/>
		<polygon points="115.459,339.613 115.459,355.729 102.995,355.729 102.995,350.733 110.047,350.733 110.047,339.613 		"/>
		<polygon points="132.351,344.69 125.665,344.69 132.681,351.909 132.681,355.884 117.989,355.884 117.989,351.504 124.84,351.504 
			118.154,344.204 118.154,340.148 132.268,340.148 		"/>
	</g>
	
		<rect x="254.576" y="359.261" opacity="0.3" fill="#E65013" stroke="#FFFFFF" stroke-width="0.8684" stroke-miterlimit="10" width="16.911" height="84.956"/>
	
		<rect x="286.707" y="359.261" opacity="0.3" fill="#E65013" stroke="#FFFFFF" stroke-width="0.8684" stroke-miterlimit="10" width="16.911" height="84.956"/>
	
		<rect x="318.837" y="359.261" opacity="0.3" fill="#E65013" stroke="#FFFFFF" stroke-width="0.8684" stroke-miterlimit="10" width="16.911" height="84.956"/>
	
		<rect x="350.967" y="359.261" opacity="0.3" fill="#E65013" stroke="#FFFFFF" stroke-width="0.8684" stroke-miterlimit="10" width="16.911" height="84.956"/>
	
		<rect x="383.098" y="359.261" opacity="0.3" fill="#E65013" stroke="#FFFFFF" stroke-width="0.8684" stroke-miterlimit="10" width="16.911" height="84.956"/>
	
		<rect x="415.228" y="359.261" opacity="0.3" fill="#E65013" stroke="#FFFFFF" stroke-width="0.8684" stroke-miterlimit="10" width="16.911" height="84.956"/>
	
		<rect x="447.358" y="359.261" opacity="0.3" fill="#E65013" stroke="#FFFFFF" stroke-width="0.8684" stroke-miterlimit="10" width="16.911" height="84.956"/>
	
		<rect x="479.488" y="359.261" opacity="0.3" fill="#E65013" stroke="#FFFFFF" stroke-width="0.8684" stroke-miterlimit="10" width="16.911" height="84.956"/>
	
		<rect x="511.619" y="359.261" opacity="0.3" fill="#E65013" stroke="#FFFFFF" stroke-width="0.8684" stroke-miterlimit="10" width="16.911" height="84.956"/>
	
		<rect x="543.749" y="359.261" opacity="0.3" fill="#E65013" stroke="#FFFFFF" stroke-width="0.8684" stroke-miterlimit="10" width="16.911" height="84.956"/>
	
		<rect x="575.879" y="359.261" opacity="0.3" fill="#E65013" stroke="#FFFFFF" stroke-width="0.8684" stroke-miterlimit="10" width="16.911" height="84.956"/>
	
		<rect x="608.009" y="359.261" opacity="0.3" fill="#E65013" stroke="#FFFFFF" stroke-width="0.8684" stroke-miterlimit="10" width="16.911" height="84.956"/>
	
		<rect x="640.14" y="359.261" opacity="0.3" fill="#E65013" stroke="#FFFFFF" stroke-width="0.8684" stroke-miterlimit="10" width="16.911" height="84.956"/>
	
		<rect x="672.27" y="359.261" opacity="0.3" fill="#E65013" stroke="#FFFFFF" stroke-width="0.8684" stroke-miterlimit="10" width="16.911" height="84.956"/>
	
		<rect x="704.4" y="359.261" opacity="0.3" fill="#E65013" stroke="#FFFFFF" stroke-width="0.8684" stroke-miterlimit="10" width="16.911" height="84.956"/>
	
		<rect x="250.432" y="362.661" fill="#E65013" stroke="#FFFFFF" stroke-width="0.8684" stroke-miterlimit="10" width="16.911" height="84.956"/>
	
		<rect x="282.563" y="362.661" fill="#E65013" stroke="#FFFFFF" stroke-width="0.8684" stroke-miterlimit="10" width="16.911" height="84.956"/>
	
		<rect x="314.693" y="362.661" fill="#E65013" stroke="#FFFFFF" stroke-width="0.8684" stroke-miterlimit="10" width="16.911" height="84.956"/>
	
		<rect x="346.823" y="362.661" fill="#E65013" stroke="#FFFFFF" stroke-width="0.8684" stroke-miterlimit="10" width="16.911" height="84.956"/>
	
		<rect x="378.953" y="362.661" fill="#E65013" stroke="#FFFFFF" stroke-width="0.8684" stroke-miterlimit="10" width="16.911" height="84.956"/>
	
		<rect x="411.084" y="362.661" fill="#E65013" stroke="#FFFFFF" stroke-width="0.8684" stroke-miterlimit="10" width="16.911" height="84.956"/>
	
		<rect x="443.214" y="362.661" fill="#E65013" stroke="#FFFFFF" stroke-width="0.8684" stroke-miterlimit="10" width="16.911" height="84.956"/>
	
		<rect x="475.344" y="362.661" fill="#E65013" stroke="#FFFFFF" stroke-width="0.8684" stroke-miterlimit="10" width="16.911" height="84.956"/>
	
		<rect x="507.474" y="362.661" fill="#E65013" stroke="#FFFFFF" stroke-width="0.8684" stroke-miterlimit="10" width="16.911" height="84.956"/>
</g>
<g id="html">
	<g id="html_logo" opacity="0.2">
		<polygon fill="#E65013" points="78.756,257.345 83.266,257.345 83.266,292.575 88.27,292.575 88.27,307.097 97.495,307.097 
			97.495,310.562 106.36,310.562 106.36,314.192 115.023,314.192 115.023,317.331 119.792,317.331 119.792,314.192 119.792,312.865 
			119.792,310.562 119.792,308.407 119.792,307.097 119.792,304.497 119.792,292.575 119.792,284.169 119.792,257.345 
			119.792,255.24 119.792,220.682 78.756,220.682 		"/>
		<g>
			<polygon points="78.729,217.501 75.321,217.501 75.321,220.532 75.321,223.586 78.729,223.586 78.729,220.532 119.792,220.532 
				119.792,217.501 			"/>
			<rect x="78.756" y="223.586" width="3.408" height="33.758"/>
			<rect x="82.19" y="257.345" width="3.408" height="35.23"/>
			<rect x="85.625" y="292.575" width="3.408" height="14.522"/>
			<rect x="89.033" y="307.097" width="8.663" height="3.385"/>
			<rect x="97.696" y="310.562" width="8.663" height="3.385"/>
			<rect x="106.36" y="313.946" width="8.663" height="3.385"/>
			<rect x="115.023" y="317.331" width="4.769" height="3.66"/>
		</g>
		<polygon fill="#E65013" points="160.828,257.345 156.318,257.345 156.318,292.575 151.314,292.575 151.314,307.097 
			142.088,307.097 142.088,310.562 133.224,310.562 133.224,314.192 124.56,314.192 124.56,317.331 119.792,317.331 
			119.792,314.192 119.792,312.865 119.792,310.562 119.792,308.407 119.792,307.097 119.792,304.497 119.792,292.575 
			119.792,284.169 119.792,257.345 119.792,255.24 119.792,220.682 160.828,220.682 		"/>
		<g>
			<polygon points="160.854,217.501 164.262,217.501 164.262,220.532 164.262,223.586 160.854,223.586 160.854,220.532 
				119.792,220.532 119.792,217.501 			"/>
			<rect x="157.419" y="223.586" width="3.408" height="33.758"/>
			<rect x="153.985" y="257.345" width="3.408" height="35.23"/>
			<rect x="150.55" y="292.575" width="3.408" height="14.522"/>
			<rect x="141.887" y="307.097" width="8.663" height="3.385"/>
			<rect x="133.224" y="310.562" width="8.663" height="3.385"/>
			<rect x="124.56" y="313.946" width="8.663" height="3.385"/>
			<rect x="119.792" y="317.331" width="4.769" height="3.66"/>
		</g>
		<polygon fill="#EDEDED" points="145.606,251.635 146.305,241.566 94.421,241.566 97.358,272.752 133.159,272.892 131.901,285.898 
			120.713,289.254 109.245,285.758 108.266,278.206 98.197,278.206 99.456,294.009 120.363,300.302 141.69,294.149 144.627,262.543 
			107.287,262.403 106.029,251.915 		"/>
		<polygon opacity="0.2" fill="#FFFFFF" points="151.502,257.538 148.079,257.538 148.079,289.788 144.282,289.788 144.282,303.081 
			137.282,303.081 137.282,306.253 130.555,306.253 130.555,309.576 123.982,309.576 123.982,312.449 120.363,312.449 
			120.363,309.576 120.363,308.361 120.363,306.253 120.363,304.28 120.363,303.081 120.363,300.701 120.363,289.788 
			120.363,282.093 120.363,257.538 120.363,255.611 120.363,223.977 151.502,223.977 		"/>
		<polygon points="92.071,202.393 96.675,202.393 96.675,196.952 102.032,196.952 102.032,212.939 97.052,212.939 97.052,207.582 
			91.82,207.582 91.82,212.688 86.463,212.688 86.463,196.952 92.071,196.952 		"/>
		<polygon points="104.376,197.119 104.376,202.309 108.896,202.309 108.896,212.605 114.169,212.605 114.169,202.476 
			118.773,202.476 118.773,197.119 		"/>
		<polygon points="121.033,196.952 121.033,212.856 126.222,212.856 126.222,205.322 129.822,210.679 133.504,205.071 
			133.504,213.023 138.778,213.023 138.778,197.036 133.253,197.036 129.905,202.56 126.725,196.952 		"/>
		<polygon points="141.456,197.119 141.456,212.939 154.263,212.939 154.263,207.666 146.73,207.666 146.73,196.952 		"/>
	</g>
	<g id="html_logo_1_">
		<polygon fill="#E65013" points="73.987,259.042 78.497,259.042 78.497,294.273 83.501,294.273 83.501,308.794 92.727,308.794 
			92.727,312.259 101.591,312.259 101.591,315.89 110.254,315.89 110.254,319.028 115.023,319.028 115.023,315.89 115.023,314.563 
			115.023,312.259 115.023,310.104 115.023,308.794 115.023,306.195 115.023,294.273 115.023,285.866 115.023,259.042 
			115.023,256.937 115.023,222.379 73.987,222.379 		"/>
		<g>
			<polygon points="73.961,219.199 70.552,219.199 70.552,222.229 70.552,225.284 73.961,225.284 73.961,222.229 115.023,222.229 
				115.023,219.199 			"/>
			<rect x="73.987" y="225.284" width="3.408" height="33.758"/>
			<rect x="77.422" y="259.042" width="3.408" height="35.23"/>
			<rect x="80.856" y="294.273" width="3.408" height="14.522"/>
			<rect x="84.265" y="308.794" width="8.663" height="3.385"/>
			<rect x="92.928" y="312.259" width="8.663" height="3.385"/>
			<rect x="101.591" y="315.644" width="8.663" height="3.385"/>
			<rect x="110.254" y="319.028" width="4.769" height="3.66"/>
		</g>
		<polygon fill="#E65013" points="156.059,259.042 151.549,259.042 151.549,294.273 146.545,294.273 146.545,308.794 
			137.319,308.794 137.319,312.259 128.455,312.259 128.455,315.89 119.792,315.89 119.792,319.028 115.023,319.028 115.023,315.89 
			115.023,314.563 115.023,312.259 115.023,310.104 115.023,308.794 115.023,306.195 115.023,294.273 115.023,285.866 
			115.023,259.042 115.023,256.937 115.023,222.379 156.059,222.379 		"/>
		<g>
			<polygon points="156.085,219.199 159.494,219.199 159.494,222.229 159.494,225.284 156.085,225.284 156.085,222.229 
				115.023,222.229 115.023,219.199 			"/>
			<rect x="152.651" y="225.284" width="3.408" height="33.758"/>
			<rect x="149.216" y="259.042" width="3.408" height="35.23"/>
			<rect x="145.781" y="294.273" width="3.408" height="14.522"/>
			<rect x="137.118" y="308.794" width="8.663" height="3.385"/>
			<rect x="128.455" y="312.259" width="8.663" height="3.385"/>
			<rect x="119.792" y="315.644" width="8.663" height="3.385"/>
			<rect x="115.023" y="319.028" width="4.769" height="3.66"/>
		</g>
		<polygon fill="#EDEDED" points="140.837,253.332 141.536,243.263 89.652,243.263 92.589,274.449 128.391,274.589 127.132,287.595 
			115.944,290.952 104.476,287.455 103.498,279.904 93.428,279.904 94.687,295.706 115.594,302 136.921,295.846 139.858,264.241 
			102.519,264.101 101.26,253.612 		"/>
		<polygon opacity="0.2" fill="#FFFFFF" points="146.733,259.236 143.311,259.236 143.311,291.485 139.514,291.485 139.514,304.778 
			132.513,304.778 132.513,307.95 125.787,307.95 125.787,311.273 119.213,311.273 119.213,314.146 115.594,314.146 
			115.594,311.273 115.594,310.058 115.594,307.95 115.594,305.977 115.594,304.778 115.594,302.398 115.594,291.485 
			115.594,283.79 115.594,259.236 115.594,257.309 115.594,225.674 146.733,225.674 		"/>
		<polygon points="87.303,204.09 91.906,204.09 91.906,198.649 97.263,198.649 97.263,214.637 92.283,214.637 92.283,209.28 
			87.052,209.28 87.052,214.386 81.695,214.386 81.695,198.649 87.303,198.649 		"/>
		<polygon points="99.607,198.817 99.607,204.006 104.127,204.006 104.127,214.302 109.4,214.302 109.4,204.174 114.004,204.174 
			114.004,198.817 		"/>
		<polygon points="116.264,198.649 116.264,214.553 121.454,214.553 121.454,207.02 125.053,212.377 128.736,206.769 
			128.736,214.721 134.009,214.721 134.009,198.733 128.485,198.733 125.137,204.258 121.956,198.649 		"/>
		<polygon points="136.688,198.817 136.688,214.637 149.494,214.637 149.494,209.363 141.961,209.363 141.961,198.649 		"/>
	</g>
	
		<rect x="250.432" y="217.501" opacity="0.3" fill="#E65013" stroke="#FFFFFF" stroke-width="0.8684" stroke-miterlimit="10" width="16.911" height="86.336"/>
	
		<rect x="282.562" y="217.501" opacity="0.3" fill="#E65013" stroke="#FFFFFF" stroke-width="0.8684" stroke-miterlimit="10" width="16.911" height="86.336"/>
	
		<rect x="314.693" y="217.501" opacity="0.3" fill="#E65013" stroke="#FFFFFF" stroke-width="0.8684" stroke-miterlimit="10" width="16.911" height="86.336"/>
	
		<rect x="346.823" y="217.501" opacity="0.3" fill="#E65013" stroke="#FFFFFF" stroke-width="0.8684" stroke-miterlimit="10" width="16.911" height="86.336"/>
	
		<rect x="378.953" y="217.501" opacity="0.3" fill="#E65013" stroke="#FFFFFF" stroke-width="0.8684" stroke-miterlimit="10" width="16.911" height="86.336"/>
	
		<rect x="411.084" y="217.501" opacity="0.3" fill="#E65013" stroke="#FFFFFF" stroke-width="0.8684" stroke-miterlimit="10" width="16.911" height="86.336"/>
	
		<rect x="443.214" y="217.501" opacity="0.3" fill="#E65013" stroke="#FFFFFF" stroke-width="0.8684" stroke-miterlimit="10" width="16.911" height="86.336"/>
	
		<rect x="475.344" y="217.501" opacity="0.3" fill="#E65013" stroke="#FFFFFF" stroke-width="0.8684" stroke-miterlimit="10" width="16.911" height="86.336"/>
	
		<rect x="507.474" y="217.501" opacity="0.3" fill="#E65013" stroke="#FFFFFF" stroke-width="0.8684" stroke-miterlimit="10" width="16.911" height="86.336"/>
	
		<rect x="539.605" y="217.501" opacity="0.3" fill="#E65013" stroke="#FFFFFF" stroke-width="0.8684" stroke-miterlimit="10" width="16.911" height="86.336"/>
	
		<rect x="571.735" y="217.501" opacity="0.3" fill="#E65013" stroke="#FFFFFF" stroke-width="0.8684" stroke-miterlimit="10" width="16.911" height="86.336"/>
	
		<rect x="603.865" y="217.501" opacity="0.3" fill="#E65013" stroke="#FFFFFF" stroke-width="0.8684" stroke-miterlimit="10" width="16.911" height="86.336"/>
	
		<rect x="635.995" y="217.501" opacity="0.3" fill="#E65013" stroke="#FFFFFF" stroke-width="0.8684" stroke-miterlimit="10" width="16.911" height="86.336"/>
	
		<rect x="668.126" y="217.501" opacity="0.3" fill="#E65013" stroke="#FFFFFF" stroke-width="0.8684" stroke-miterlimit="10" width="16.911" height="86.336"/>
	
		<rect x="700.256" y="217.501" opacity="0.3" fill="#E65013" stroke="#FFFFFF" stroke-width="0.8684" stroke-miterlimit="10" width="16.911" height="86.336"/>
	
		<rect x="245.269" y="220.682" fill="#E65013" stroke="#FFFFFF" stroke-width="0.8684" stroke-miterlimit="10" width="16.911" height="86.336"/>
	
		<rect x="277.399" y="220.682" fill="#E65013" stroke="#FFFFFF" stroke-width="0.8684" stroke-miterlimit="10" width="16.911" height="86.336"/>
	
		<rect x="309.53" y="220.682" fill="#E65013" stroke="#FFFFFF" stroke-width="0.8684" stroke-miterlimit="10" width="16.911" height="86.336"/>
	
		<rect x="341.66" y="220.682" fill="#E65013" stroke="#FFFFFF" stroke-width="0.8684" stroke-miterlimit="10" width="16.911" height="86.336"/>
	
		<rect x="373.79" y="220.682" fill="#E65013" stroke="#FFFFFF" stroke-width="0.8684" stroke-miterlimit="10" width="16.911" height="86.336"/>
	
		<rect x="405.92" y="220.682" fill="#E65013" stroke="#FFFFFF" stroke-width="0.8684" stroke-miterlimit="10" width="16.911" height="86.336"/>
	
		<rect x="438.051" y="220.682" fill="#E65013" stroke="#FFFFFF" stroke-width="0.8684" stroke-miterlimit="10" width="16.911" height="86.336"/>
	
		<rect x="470.181" y="220.682" fill="#E65013" stroke="#FFFFFF" stroke-width="0.8684" stroke-miterlimit="10" width="16.911" height="86.336"/>
	
		<rect x="502.311" y="220.682" fill="#E65013" stroke="#FFFFFF" stroke-width="0.8684" stroke-miterlimit="10" width="16.911" height="86.336"/>
	
		<rect x="534.441" y="220.682" fill="#E65013" stroke="#FFFFFF" stroke-width="0.8684" stroke-miterlimit="10" width="16.911" height="86.336"/>
</g>
<g id="css">
	<g id="logo_css" opacity="0.2">
		<polygon fill="#1A71A8" points="78.121,546.854 82.62,546.854 82.62,581.551 87.611,581.551 87.611,595.852 96.814,595.852 
			96.814,599.265 105.657,599.265 105.657,602.84 114.298,602.84 114.298,605.931 119.055,605.931 119.055,602.84 119.055,601.533 
			119.055,599.265 119.055,597.142 119.055,595.852 119.055,593.292 119.055,581.551 119.055,573.272 119.055,546.854 
			119.055,544.781 119.055,510.747 78.121,510.747 		"/>
		<g>
			<polygon points="78.095,507.615 74.695,507.615 74.695,510.6 74.695,513.608 78.095,513.608 78.095,510.6 119.055,510.6 
				119.055,507.615 			"/>
			<rect x="78.121" y="513.608" width="3.4" height="33.247"/>
			<rect x="81.547" y="546.854" width="3.4" height="34.696"/>
			<rect x="84.973" y="581.551" width="3.4" height="14.301"/>
			<rect x="88.373" y="595.852" width="8.642" height="3.333"/>
			<rect x="97.015" y="599.265" width="8.642" height="3.333"/>
			<rect x="105.657" y="602.598" width="8.642" height="3.333"/>
			<rect x="114.298" y="605.931" width="4.757" height="3.604"/>
		</g>
		<polygon fill="#1A71A8" points="159.989,546.854 155.49,546.854 155.49,581.551 150.499,581.551 150.499,595.852 141.296,595.852 
			141.296,599.265 132.454,599.265 132.454,602.84 123.812,602.84 123.812,605.931 119.055,605.931 119.055,602.84 119.055,601.533 
			119.055,599.265 119.055,597.142 119.055,595.852 119.055,593.292 119.055,581.551 119.055,573.272 119.055,546.854 
			119.055,544.781 119.055,510.747 159.989,510.747 		"/>
		<g>
			<polygon points="160.015,507.615 163.415,507.615 163.415,510.6 163.415,513.608 160.015,513.608 160.015,510.6 119.055,510.6 
				119.055,507.615 			"/>
			<rect x="156.589" y="513.608" width="3.4" height="33.247"/>
			<rect x="153.163" y="546.854" width="3.4" height="34.696"/>
			<rect x="149.737" y="581.551" width="3.4" height="14.301"/>
			<rect x="141.095" y="595.852" width="8.642" height="3.333"/>
			<rect x="132.454" y="599.265" width="8.642" height="3.333"/>
			<rect x="123.812" y="602.598" width="8.642" height="3.333"/>
			<rect x="119.055" y="605.931" width="4.757" height="3.604"/>
		</g>
		<polygon fill="#EDEDED" points="93.822,529.205 94.765,539.183 134.11,539.183 133.301,549.825 107.431,549.825 108.239,560.335 
			132.358,560.601 131.146,572.973 119.962,576.564 108.509,573.372 107.7,565.257 97.19,565.257 98.268,581.354 119.558,587.473 
			140.982,581.221 145.428,529.205 		"/>
		<polygon opacity="0.2" fill="#FFFFFF" points="150.686,547.045 147.273,547.045 147.273,578.806 143.485,578.806 143.485,591.897 
			136.502,591.897 136.502,595.021 129.792,595.021 129.792,598.294 123.235,598.294 123.235,601.123 119.625,601.123 
			119.625,598.294 119.625,597.097 119.625,595.021 119.625,593.078 119.625,591.897 119.625,589.553 119.625,578.806 
			119.625,571.227 119.625,547.045 119.625,545.147 119.625,513.993 150.686,513.993 		"/>
		<polygon points="108.227,491.857 108.227,487.676 95.524,487.676 95.524,502.607 108.227,502.607 108.227,498.784 
			100.726,498.784 100.726,491.976 		"/>
		<polygon points="125.286,487.318 125.286,491.379 118.753,491.379 125.165,498.904 125.165,502.846 111.01,502.846 
			111.01,498.784 117.543,498.784 111.01,491.259 111.01,487.318 		"/>
		<polygon points="142.586,487.318 142.586,491.379 136.053,491.379 142.465,498.904 142.465,502.846 128.31,502.846 
			128.31,498.784 134.843,498.784 128.31,491.259 128.31,487.318 		"/>
	</g>
	<g id="logo_css_1_">
		<polygon fill="#1A71A8" points="73.978,548.6 78.477,548.6 78.477,583.297 83.469,583.297 83.469,597.598 92.672,597.598 
			92.672,601.01 101.514,601.01 101.514,604.586 110.156,604.586 110.156,607.677 114.912,607.677 114.912,604.586 114.912,603.279 
			114.912,601.01 114.912,598.888 114.912,597.598 114.912,595.038 114.912,583.297 114.912,575.018 114.912,548.6 114.912,546.527 
			114.912,512.493 73.978,512.493 		"/>
		<g>
			<polygon points="73.952,509.36 70.552,509.36 70.552,512.345 70.552,515.353 73.952,515.353 73.952,512.345 114.912,512.345 
				114.912,509.36 			"/>
			<rect x="73.978" y="515.353" width="3.4" height="33.247"/>
			<rect x="77.404" y="548.6" width="3.4" height="34.696"/>
			<rect x="80.831" y="583.297" width="3.4" height="14.301"/>
			<rect x="84.23" y="597.598" width="8.642" height="3.333"/>
			<rect x="92.872" y="601.01" width="8.642" height="3.333"/>
			<rect x="101.514" y="604.344" width="8.642" height="3.333"/>
			<rect x="110.156" y="607.677" width="4.757" height="3.604"/>
		</g>
		<polygon fill="#1A71A8" points="155.846,548.6 151.348,548.6 151.348,583.297 146.356,583.297 146.356,597.598 137.153,597.598 
			137.153,601.01 128.311,601.01 128.311,604.586 119.669,604.586 119.669,607.677 114.912,607.677 114.912,604.586 
			114.912,603.279 114.912,601.01 114.912,598.888 114.912,597.598 114.912,595.038 114.912,583.297 114.912,575.018 114.912,548.6 
			114.912,546.527 114.912,512.493 155.846,512.493 		"/>
		<g>
			<polygon points="155.873,509.36 159.272,509.36 159.272,512.345 159.272,515.353 155.873,515.353 155.873,512.345 
				114.912,512.345 114.912,509.36 			"/>
			<rect x="152.446" y="515.353" width="3.4" height="33.247"/>
			<rect x="149.02" y="548.6" width="3.4" height="34.696"/>
			<rect x="145.594" y="583.297" width="3.4" height="14.301"/>
			<rect x="136.953" y="597.598" width="8.642" height="3.333"/>
			<rect x="128.311" y="601.01" width="8.642" height="3.333"/>
			<rect x="119.669" y="604.344" width="8.642" height="3.333"/>
			<rect x="114.912" y="607.677" width="4.757" height="3.604"/>
		</g>
		<polygon fill="#EDEDED" points="89.679,530.951 90.622,540.928 129.967,540.928 129.159,551.571 103.288,551.571 104.097,562.08 
			128.216,562.346 127.003,574.718 115.819,578.31 104.366,575.117 103.558,567.003 93.048,567.003 94.126,583.099 115.415,589.219 
			136.839,582.966 141.286,530.951 		"/>
		<polygon opacity="0.2" fill="#FFFFFF" points="146.544,548.791 143.13,548.791 143.13,580.551 139.342,580.551 139.342,593.643 
			132.359,593.643 132.359,596.766 125.649,596.766 125.649,600.039 119.092,600.039 119.092,602.869 115.482,602.869 
			115.482,600.039 115.482,598.843 115.482,596.766 115.482,594.823 115.482,593.643 115.482,591.299 115.482,580.551 
			115.482,572.973 115.482,548.791 115.482,546.893 115.482,515.738 146.544,515.738 		"/>
		<polygon points="104.084,493.602 104.084,489.422 91.381,489.422 91.381,504.352 104.084,504.352 104.084,500.53 96.583,500.53 
			96.583,493.722 		"/>
		<polygon points="121.143,489.063 121.143,493.125 114.61,493.125 121.022,500.65 121.022,504.591 106.867,504.591 106.867,500.53 
			113.4,500.53 106.867,493.005 106.867,489.063 		"/>
		<polygon points="138.444,489.063 138.444,493.125 131.91,493.125 138.323,500.65 138.323,504.591 124.168,504.591 124.168,500.53 
			130.701,500.53 124.168,493.005 124.168,489.063 		"/>
	</g>
	
		<rect x="250.717" y="507.694" opacity="0.3" fill="#E65013" stroke="#FFFFFF" stroke-width="0.8684" stroke-miterlimit="10" width="16.911" height="84.956"/>
	
		<rect x="282.847" y="507.694" opacity="0.3" fill="#E65013" stroke="#FFFFFF" stroke-width="0.8684" stroke-miterlimit="10" width="16.911" height="84.956"/>
	
		<rect x="314.978" y="507.694" opacity="0.3" fill="#E65013" stroke="#FFFFFF" stroke-width="0.8684" stroke-miterlimit="10" width="16.911" height="84.956"/>
	
		<rect x="347.108" y="507.694" opacity="0.3" fill="#E65013" stroke="#FFFFFF" stroke-width="0.8684" stroke-miterlimit="10" width="16.911" height="84.956"/>
	
		<rect x="379.238" y="507.694" opacity="0.3" fill="#E65013" stroke="#FFFFFF" stroke-width="0.8684" stroke-miterlimit="10" width="16.911" height="84.956"/>
	
		<rect x="411.368" y="507.694" opacity="0.3" fill="#E65013" stroke="#FFFFFF" stroke-width="0.8684" stroke-miterlimit="10" width="16.911" height="84.956"/>
	
		<rect x="443.499" y="507.694" opacity="0.3" fill="#E65013" stroke="#FFFFFF" stroke-width="0.8684" stroke-miterlimit="10" width="16.911" height="84.956"/>
	
		<rect x="475.629" y="507.694" opacity="0.3" fill="#E65013" stroke="#FFFFFF" stroke-width="0.8684" stroke-miterlimit="10" width="16.911" height="84.956"/>
	
		<rect x="507.759" y="507.694" opacity="0.3" fill="#E65013" stroke="#FFFFFF" stroke-width="0.8684" stroke-miterlimit="10" width="16.911" height="84.956"/>
	
		<rect x="539.89" y="507.694" opacity="0.3" fill="#E65013" stroke="#FFFFFF" stroke-width="0.8684" stroke-miterlimit="10" width="16.911" height="84.956"/>
	
		<rect x="572.02" y="507.694" opacity="0.3" fill="#E65013" stroke="#FFFFFF" stroke-width="0.8684" stroke-miterlimit="10" width="16.911" height="84.956"/>
	
		<rect x="604.15" y="507.694" opacity="0.3" fill="#E65013" stroke="#FFFFFF" stroke-width="0.8684" stroke-miterlimit="10" width="16.911" height="84.956"/>
	
		<rect x="636.28" y="507.694" opacity="0.3" fill="#E65013" stroke="#FFFFFF" stroke-width="0.8684" stroke-miterlimit="10" width="16.911" height="84.956"/>
	
		<rect x="668.411" y="507.694" opacity="0.3" fill="#E65013" stroke="#FFFFFF" stroke-width="0.8684" stroke-miterlimit="10" width="16.911" height="84.956"/>
	
		<rect x="700.541" y="507.694" opacity="0.3" fill="#E65013" stroke="#FFFFFF" stroke-width="0.8684" stroke-miterlimit="10" width="16.911" height="84.956"/>
	
		<rect x="246.539" y="510.611" fill="#E65013" stroke="#FFFFFF" stroke-width="0.8684" stroke-miterlimit="10" width="16.911" height="84.956"/>
	
		<rect x="278.669" y="510.611" fill="#E65013" stroke="#FFFFFF" stroke-width="0.8684" stroke-miterlimit="10" width="16.911" height="84.956"/>
	
		<rect x="310.799" y="510.611" fill="#E65013" stroke="#FFFFFF" stroke-width="0.8684" stroke-miterlimit="10" width="16.911" height="84.956"/>
	
		<rect x="342.93" y="510.611" fill="#E65013" stroke="#FFFFFF" stroke-width="0.8684" stroke-miterlimit="10" width="16.911" height="84.956"/>
	
		<rect x="375.06" y="510.611" fill="#E65013" stroke="#FFFFFF" stroke-width="0.8684" stroke-miterlimit="10" width="16.911" height="84.956"/>
	
		<rect x="407.19" y="510.611" fill="#E65013" stroke="#FFFFFF" stroke-width="0.8684" stroke-miterlimit="10" width="16.911" height="84.956"/>
	
		<rect x="439.32" y="510.611" fill="#E65013" stroke="#FFFFFF" stroke-width="0.8684" stroke-miterlimit="10" width="16.911" height="84.956"/>
	
		<rect x="471.451" y="510.611" fill="#E65013" stroke="#FFFFFF" stroke-width="0.8684" stroke-miterlimit="10" width="16.911" height="84.956"/>
	
		<rect x="503.581" y="510.611" fill="#E65013" stroke="#FFFFFF" stroke-width="0.8684" stroke-miterlimit="10" width="16.911" height="84.956"/>
	
		<rect x="535.711" y="510.611" fill="#E65013" stroke="#FFFFFF" stroke-width="0.8684" stroke-miterlimit="10" width="16.911" height="84.956"/>
	
		<rect x="567.841" y="510.611" fill="#E65013" stroke="#FFFFFF" stroke-width="0.8684" stroke-miterlimit="10" width="16.911" height="84.956"/>
</g>
<g id="css_1_">
	<g id="logo_css_3_" opacity="0.2">
		<polygon fill="#1A71A8" points="78.121,701.276 82.62,701.276 82.62,735.973 87.611,735.973 87.611,750.274 96.814,750.274 
			96.814,753.687 105.657,753.687 105.657,757.262 114.298,757.262 114.298,760.353 119.055,760.353 119.055,757.262 
			119.055,755.955 119.055,753.687 119.055,751.564 119.055,750.274 119.055,747.714 119.055,735.973 119.055,727.694 
			119.055,701.276 119.055,699.203 119.055,665.169 78.121,665.169 		"/>
		<g>
			<polygon points="78.095,662.037 74.695,662.037 74.695,665.022 74.695,668.029 78.095,668.029 78.095,665.022 119.055,665.022 
				119.055,662.037 			"/>
			<rect x="78.121" y="668.029" width="3.4" height="33.247"/>
			<rect x="81.547" y="701.276" width="3.4" height="34.696"/>
			<rect x="84.973" y="735.973" width="3.4" height="14.301"/>
			<rect x="88.373" y="750.274" width="8.642" height="3.333"/>
			<rect x="97.015" y="753.687" width="8.642" height="3.333"/>
			<rect x="105.657" y="757.02" width="8.642" height="3.333"/>
			<rect x="114.298" y="760.353" width="4.757" height="3.604"/>
		</g>
		<polygon fill="#1A71A8" points="159.989,701.276 155.49,701.276 155.49,735.973 150.499,735.973 150.499,750.274 141.296,750.274 
			141.296,753.687 132.454,753.687 132.454,757.262 123.812,757.262 123.812,760.353 119.055,760.353 119.055,757.262 
			119.055,755.955 119.055,753.687 119.055,751.564 119.055,750.274 119.055,747.714 119.055,735.973 119.055,727.694 
			119.055,701.276 119.055,699.203 119.055,665.169 159.989,665.169 		"/>
		<g>
			<polygon points="160.015,662.037 163.415,662.037 163.415,665.022 163.415,668.029 160.015,668.029 160.015,665.022 
				119.055,665.022 119.055,662.037 			"/>
			<rect x="156.589" y="668.029" width="3.4" height="33.247"/>
			<rect x="153.163" y="701.276" width="3.4" height="34.696"/>
			<rect x="149.737" y="735.973" width="3.4" height="14.301"/>
			<rect x="141.095" y="750.274" width="8.642" height="3.333"/>
			<rect x="132.454" y="753.687" width="8.642" height="3.333"/>
			<rect x="123.812" y="757.02" width="8.642" height="3.333"/>
			<rect x="119.055" y="760.353" width="4.757" height="3.604"/>
		</g>
		<polygon fill="#EDEDED" points="93.822,683.627 94.765,693.604 134.11,693.604 133.301,704.247 107.431,704.247 108.239,714.756 
			132.358,715.022 131.146,727.394 119.962,730.986 108.509,727.793 107.7,719.679 97.19,719.679 98.268,735.775 119.558,741.895 
			140.982,735.642 145.428,683.627 		"/>
		<polygon opacity="0.2" fill="#FFFFFF" points="150.686,701.467 147.273,701.467 147.273,733.227 143.485,733.227 143.485,746.319 
			136.502,746.319 136.502,749.443 129.792,749.443 129.792,752.715 123.235,752.715 123.235,755.545 119.625,755.545 
			119.625,752.715 119.625,751.519 119.625,749.443 119.625,747.5 119.625,746.319 119.625,743.975 119.625,733.227 
			119.625,725.649 119.625,701.467 119.625,699.569 119.625,668.414 150.686,668.414 		"/>
		<path d="M124.022,643.117v14.89h-4.728v-6.275h-2.778v6.275h-4.728v-14.89h4.728v4.572h2.778v-4.572H124.022z"/>
		<path d="M126.629,643.117h4.762c1.288,0,3.505,0.101,4.198,0.303c0.692,0.202,1.213,0.494,1.561,0.876
			c0.349,0.382,0.584,0.844,0.708,1.387c0.123,0.543,0.185,1.384,0.185,2.521v1.583c0,1.161-0.12,2.007-0.359,2.539
			c-0.24,0.531-0.679,0.939-1.32,1.224c-0.64,0.284-2.703,0.427-3.737,0.427h-1.269v4.031h-4.728V643.117z M131.357,646.227v4.627
			c0.135,0.008,0.251,0.011,0.348,0.011c0.434,0,0.735-0.106,0.904-0.319c0.168-0.214,0.252-0.657,0.252-1.331v-1.494
			c0-0.621-0.097-1.025-0.292-1.213C132.375,646.321,131.971,646.227,131.357,646.227z"/>
		<path d="M98.254,643.117h4.762c1.288,0,3.505,0.101,4.198,0.303c0.692,0.202,1.213,0.494,1.561,0.876
			c0.349,0.382,0.584,0.844,0.708,1.387c0.123,0.543,0.185,1.384,0.185,2.521v1.583c0,1.161-0.12,2.007-0.359,2.539
			c-0.24,0.531-0.679,0.939-1.32,1.224c-0.64,0.284-2.703,0.427-3.737,0.427h-1.269v4.031h-4.728V643.117z M102.982,646.227v4.627
			c0.135,0.008,0.251,0.011,0.348,0.011c0.434,0,0.735-0.106,0.904-0.319c0.168-0.214,0.252-0.657,0.252-1.331v-1.494
			c0-0.621-0.097-1.025-0.292-1.213C104,646.321,103.596,646.227,102.982,646.227z"/>
	</g>
	<g id="logo_css_2_">
		<polygon fill="#656E89" points="73.978,703.022 78.477,703.022 78.477,737.718 83.469,737.718 83.469,752.02 92.672,752.02 
			92.672,755.432 101.514,755.432 101.514,759.008 110.156,759.008 110.156,762.099 114.912,762.099 114.912,759.008 
			114.912,757.701 114.912,755.432 114.912,753.31 114.912,752.02 114.912,749.459 114.912,737.718 114.912,729.439 
			114.912,703.022 114.912,700.949 114.912,666.914 73.978,666.914 		"/>
		<g>
			<polygon points="73.952,663.782 70.552,663.782 70.552,666.767 70.552,669.775 73.952,669.775 73.952,666.767 114.912,666.767 
				114.912,663.782 			"/>
			<rect x="73.978" y="669.775" width="3.4" height="33.247"/>
			<rect x="77.404" y="703.022" width="3.4" height="34.696"/>
			<rect x="80.831" y="737.718" width="3.4" height="14.301"/>
			<rect x="84.23" y="752.02" width="8.642" height="3.333"/>
			<rect x="92.872" y="755.432" width="8.642" height="3.333"/>
			<rect x="101.514" y="758.765" width="8.642" height="3.333"/>
			<rect x="110.156" y="762.099" width="4.757" height="3.604"/>
		</g>
		<polygon fill="#656E89" points="155.846,703.022 151.348,703.022 151.348,737.718 146.356,737.718 146.356,752.02 137.153,752.02 
			137.153,755.432 128.311,755.432 128.311,759.008 119.669,759.008 119.669,762.099 114.912,762.099 114.912,759.008 
			114.912,757.701 114.912,755.432 114.912,753.31 114.912,752.02 114.912,749.459 114.912,737.718 114.912,729.439 
			114.912,703.022 114.912,700.949 114.912,666.914 155.846,666.914 		"/>
		<g>
			<polygon points="155.873,663.782 159.272,663.782 159.272,666.767 159.272,669.775 155.873,669.775 155.873,666.767 
				114.912,666.767 114.912,663.782 			"/>
			<rect x="152.446" y="669.775" width="3.4" height="33.247"/>
			<rect x="149.02" y="703.022" width="3.4" height="34.696"/>
			<rect x="145.594" y="737.718" width="3.4" height="14.301"/>
			<rect x="136.953" y="752.02" width="8.642" height="3.333"/>
			<rect x="128.311" y="755.432" width="8.642" height="3.333"/>
			<rect x="119.669" y="758.765" width="8.642" height="3.333"/>
			<rect x="114.912" y="762.099" width="4.757" height="3.604"/>
		</g>
		<polygon fill="#EDEDED" points="88.428,692.941 86.761,681.838 139.095,681.838 138.761,693.505 132.845,702.797 137.97,702.797 
			137.47,713.422 126.595,713.422 110.845,741.297 100.595,738.172 114.345,713.547 107.595,713.672 106.47,702.922 120.97,702.547 
			126.47,692.797 		"/>
		<polygon opacity="0.2" fill="#AEAEAE" points="146.544,703.212 143.13,703.212 143.13,734.973 139.342,734.973 139.342,748.064 
			132.359,748.064 132.359,751.188 125.649,751.188 125.649,754.461 119.092,754.461 119.092,757.291 115.482,757.291 
			115.482,754.461 115.482,753.265 115.482,751.188 115.482,749.245 115.482,748.064 115.482,745.721 115.482,734.973 
			115.482,727.395 115.482,703.212 115.482,701.315 115.482,670.16 146.544,670.16 		"/>
		<path d="M121.356,644.117v14.89h-4.728v-6.275h-2.778v6.275h-4.728v-14.89h4.728v4.572h2.778v-4.572H121.356z"/>
		<path d="M123.963,644.117h4.762c1.288,0,3.505,0.101,4.198,0.303c0.692,0.202,1.213,0.494,1.561,0.876
			c0.349,0.382,0.584,0.844,0.708,1.387c0.123,0.543,0.185,1.384,0.185,2.521v1.583c0,1.161-0.12,2.007-0.359,2.539
			c-0.24,0.531-0.679,0.939-1.32,1.224c-0.64,0.284-2.703,0.427-3.737,0.427h-1.269v4.031h-4.728V644.117z M128.691,647.227v4.627
			c0.135,0.008,0.251,0.011,0.348,0.011c0.434,0,0.735-0.106,0.904-0.319c0.168-0.214,0.252-0.657,0.252-1.331v-1.494
			c0-0.621-0.097-1.025-0.292-1.213C129.71,647.321,129.305,647.227,128.691,647.227z"/>
		<path d="M95.588,644.117h4.762c1.288,0,3.505,0.101,4.198,0.303c0.692,0.202,1.213,0.494,1.561,0.876
			c0.349,0.382,0.584,0.844,0.708,1.387c0.123,0.543,0.185,1.384,0.185,2.521v1.583c0,1.161-0.12,2.007-0.359,2.539
			c-0.24,0.531-0.679,0.939-1.32,1.224c-0.64,0.284-2.703,0.427-3.737,0.427h-1.269v4.031h-4.728V644.117z M100.316,647.227v4.627
			c0.135,0.008,0.251,0.011,0.348,0.011c0.434,0,0.735-0.106,0.904-0.319c0.168-0.214,0.252-0.657,0.252-1.331v-1.494
			c0-0.621-0.097-1.025-0.292-1.213C101.335,647.321,100.93,647.227,100.316,647.227z"/>
	</g>
	
		<rect x="250.717" y="662.116" opacity="0.3" fill="#E65013" stroke="#FFFFFF" stroke-width="0.8684" stroke-miterlimit="10" width="16.911" height="84.956"/>
	
		<rect x="282.847" y="662.116" opacity="0.3" fill="#E65013" stroke="#FFFFFF" stroke-width="0.8684" stroke-miterlimit="10" width="16.911" height="84.956"/>
	
		<rect x="314.978" y="662.116" opacity="0.3" fill="#E65013" stroke="#FFFFFF" stroke-width="0.8684" stroke-miterlimit="10" width="16.911" height="84.956"/>
	
		<rect x="347.108" y="662.116" opacity="0.3" fill="#E65013" stroke="#FFFFFF" stroke-width="0.8684" stroke-miterlimit="10" width="16.911" height="84.956"/>
	
		<rect x="379.238" y="662.116" opacity="0.3" fill="#E65013" stroke="#FFFFFF" stroke-width="0.8684" stroke-miterlimit="10" width="16.911" height="84.956"/>
	
		<rect x="411.368" y="662.116" opacity="0.3" fill="#E65013" stroke="#FFFFFF" stroke-width="0.8684" stroke-miterlimit="10" width="16.911" height="84.956"/>
	
		<rect x="443.499" y="662.116" opacity="0.3" fill="#E65013" stroke="#FFFFFF" stroke-width="0.8684" stroke-miterlimit="10" width="16.911" height="84.956"/>
	
		<rect x="475.629" y="662.116" opacity="0.3" fill="#E65013" stroke="#FFFFFF" stroke-width="0.8684" stroke-miterlimit="10" width="16.911" height="84.956"/>
	
		<rect x="507.759" y="662.116" opacity="0.3" fill="#E65013" stroke="#FFFFFF" stroke-width="0.8684" stroke-miterlimit="10" width="16.911" height="84.956"/>
	
		<rect x="539.89" y="662.116" opacity="0.3" fill="#E65013" stroke="#FFFFFF" stroke-width="0.8684" stroke-miterlimit="10" width="16.911" height="84.956"/>
	
		<rect x="572.02" y="662.116" opacity="0.3" fill="#E65013" stroke="#FFFFFF" stroke-width="0.8684" stroke-miterlimit="10" width="16.911" height="84.956"/>
	
		<rect x="604.15" y="662.116" opacity="0.3" fill="#E65013" stroke="#FFFFFF" stroke-width="0.8684" stroke-miterlimit="10" width="16.911" height="84.956"/>
	
		<rect x="636.28" y="662.116" opacity="0.3" fill="#E65013" stroke="#FFFFFF" stroke-width="0.8684" stroke-miterlimit="10" width="16.911" height="84.956"/>
	
		<rect x="668.411" y="662.116" opacity="0.3" fill="#E65013" stroke="#FFFFFF" stroke-width="0.8684" stroke-miterlimit="10" width="16.911" height="84.956"/>
	
		<rect x="700.541" y="662.116" opacity="0.3" fill="#E65013" stroke="#FFFFFF" stroke-width="0.8684" stroke-miterlimit="10" width="16.911" height="84.956"/>
	
		<rect x="246.539" y="665.033" fill="#E65013" stroke="#FFFFFF" stroke-width="0.8684" stroke-miterlimit="10" width="16.911" height="84.956"/>
	
		<rect x="278.669" y="665.033" fill="#E65013" stroke="#FFFFFF" stroke-width="0.8684" stroke-miterlimit="10" width="16.911" height="84.956"/>
	
		<rect x="310.799" y="665.033" fill="#E65013" stroke="#FFFFFF" stroke-width="0.8684" stroke-miterlimit="10" width="16.911" height="84.956"/>
	
		<rect x="342.93" y="665.033" fill="#E65013" stroke="#FFFFFF" stroke-width="0.8684" stroke-miterlimit="10" width="16.911" height="84.956"/>
	
		<rect x="375.06" y="665.033" fill="#E65013" stroke="#FFFFFF" stroke-width="0.8684" stroke-miterlimit="10" width="16.911" height="84.956"/>
	
		<rect x="407.19" y="665.033" fill="#E65013" stroke="#FFFFFF" stroke-width="0.8684" stroke-miterlimit="10" width="16.911" height="84.956"/>
	
		<rect x="439.32" y="665.033" fill="#E65013" stroke="#FFFFFF" stroke-width="0.8684" stroke-miterlimit="10" width="16.911" height="84.956"/>
	
		<rect x="471.451" y="665.033" fill="#E65013" stroke="#FFFFFF" stroke-width="0.8684" stroke-miterlimit="10" width="16.911" height="84.956"/>
	
		<rect x="503.581" y="665.033" fill="#E65013" stroke="#FFFFFF" stroke-width="0.8684" stroke-miterlimit="10" width="16.911" height="84.956"/>
</g>
<g id="skills">
	<text transform="matrix(1 0 0 1 245.3192 133.1896)" fill="#EF6612" font-family="'Silkscreen'" font-size="85">SKILLS</text>
	<text transform="matrix(1 0 0 1 241.2964 133.1896)" font-family="'Silkscreen'" font-size="85">SKILLS</text>
</g>
</svg>
